M48
; DRILL file {KiCad 8.0.0} date 2024-10-29T00:45:54-0500
; FORMAT={-:-/ absolute / inch / decimal}
; #@! TF.CreationDate,2024-10-29T00:45:54-05:00
; #@! TF.GenerationSoftware,Kicad,Pcbnew,8.0.0
; #@! TF.FileFunction,Plated,1,2,PTH
FMAT,2
INCH
; #@! TA.AperFunction,Plated,PTH,ViaDrill
T1C0.0100
%
G90
G05
T1
X0.1722Y-0.8677
X0.2018Y-0.8677
X0.2102Y-1.6447
X0.2854Y-1.0226
X0.2854Y-1.0522
X0.315Y-1.0226
X0.315Y-1.0522
X0.3524Y-1.0226
X0.3524Y-1.0522
X0.3819Y-1.0226
X0.3819Y-1.0522
X0.4886Y-2.1135
X0.5144Y-1.6654
X0.5144Y-1.8278
X0.5201Y-0.878
X0.5496Y-0.878
X0.5506Y-1.0787
X0.5506Y-1.1083
X0.5531Y-0.8268
X0.5801Y-1.0787
X0.5801Y-1.1083
X0.6294Y-2.089
X0.6836Y-1.4691
X0.6906Y-1.2992
X0.6923Y-2.1185
X0.7111Y-2.27
X0.7209Y-0.093
X0.7505Y-0.093
X0.7879Y-0.093
X0.7879Y-0.4712
X0.7879Y-0.5007
X0.7897Y-1.1821
X0.7897Y-1.3681
X0.8107Y-1.8502
X0.8107Y-1.9651
X0.8174Y-0.093
X0.8174Y-0.4712
X0.8174Y-0.5007
X0.8276Y-2.2146
X0.8682Y-1.4571
X0.898Y-1.1339
X0.9156Y-1.2274
X0.9156Y-1.2569
X0.9294Y-1.7061
X0.9882Y-2.3101
X0.9882Y-2.377
X1.0167Y-1.2315
X1.0167Y-1.2649
X1.0167Y-1.2983
X1.0167Y-1.3317
X1.0167Y-1.3651
X1.0167Y-1.3985
X1.0274Y-2.0877
X1.0274Y-2.1369
X1.0426Y-0.9445
X1.0501Y-1.2315
X1.0501Y-1.3985
X1.0835Y-1.2315
X1.0835Y-1.3985
X1.0849Y-1.7061
X1.1169Y-1.2315
X1.1169Y-1.3985
X1.1214Y-1.5063
X1.1391Y-0.787
X1.1391Y-0.848
X1.1461Y-1.6968
X1.1503Y-1.2315
X1.1503Y-1.3985
X1.1516Y-0.2648
X1.1516Y-0.2943
X1.1516Y-0.3317
X1.1516Y-0.3612
X1.1811Y-0.2648
X1.1811Y-0.2943
X1.1811Y-0.3317
X1.1811Y-0.3612
X1.1837Y-1.2315
X1.1837Y-1.2649
X1.1837Y-1.2983
X1.1837Y-1.3317
X1.1837Y-1.3651
X1.1837Y-1.3985
X1.2036Y-1.6968
X1.2296Y-1.154
X1.2441Y-2.0473
X1.2906Y-1.1132
X1.3281Y-1.1319
X1.3288Y-1.8269
X1.3662Y-1.7876
X1.4036Y-1.8269
X1.4058Y-1.1801
X1.4058Y-1.247
X1.4122Y-1.4449
X1.4157Y-1.3533
X1.439Y-1.4252
X1.4882Y-2.3072
X1.4882Y-2.3938
X1.6134Y-1.4992
X1.6181Y-2.0906
X1.6181Y-2.1339
X1.6989Y-2.2422
X1.6989Y-2.4587
X1.7Y-1.5858
X1.7Y-1.6724
X1.7593Y-2.0537
X1.7867Y-1.6724
X1.8263Y-2.0537
X1.8362Y-0.1063
X1.8386Y-1.3516
X1.8386Y-1.6291
X1.8386Y-1.7531
X1.8677Y-0.1067
X1.9209Y-0.2743
X1.9228Y-0.4577
X1.9449Y-1.7472
X1.9449Y-1.8516
X1.9769Y-2.0923
X1.9779Y-2.1322
X1.9796Y-2.0367
X1.9878Y-0.2743
X2.061Y-1.7409
X2.1039Y-0.6752
X2.1167Y-0.7224
X2.1167Y-0.9862
X2.165Y-0.6762
X2.165Y-1.0315
X2.4685Y-1.8398
X2.4862Y-1.2039
M30
