%TF.GenerationSoftware,KiCad,Pcbnew,8.0.4*%
%TF.CreationDate,2024-10-29T22:25:36-05:00*%
%TF.ProjectId,flight-computer-lite,666c6967-6874-42d6-936f-6d7075746572,rev?*%
%TF.SameCoordinates,PX1312d00PY1312d00*%
%TF.FileFunction,Copper,L1,Top*%
%TF.FilePolarity,Positive*%
%FSLAX46Y46*%
G04 Gerber Fmt 4.6, Leading zero omitted, Abs format (unit mm)*
G04 Created by KiCad (PCBNEW 8.0.4) date 2024-10-29 22:25:36*
%MOMM*%
%LPD*%
G01*
G04 APERTURE LIST*
G04 Aperture macros list*
%AMRoundRect*
0 Rectangle with rounded corners*
0 $1 Rounding radius*
0 $2 $3 $4 $5 $6 $7 $8 $9 X,Y pos of 4 corners*
0 Add a 4 corners polygon primitive as box body*
4,1,4,$2,$3,$4,$5,$6,$7,$8,$9,$2,$3,0*
0 Add four circle primitives for the rounded corners*
1,1,$1+$1,$2,$3*
1,1,$1+$1,$4,$5*
1,1,$1+$1,$6,$7*
1,1,$1+$1,$8,$9*
0 Add four rect primitives between the rounded corners*
20,1,$1+$1,$2,$3,$4,$5,0*
20,1,$1+$1,$4,$5,$6,$7,0*
20,1,$1+$1,$6,$7,$8,$9,0*
20,1,$1+$1,$8,$9,$2,$3,0*%
G04 Aperture macros list end*
%TA.AperFunction,Conductor*%
%ADD10C,0.508000*%
%TD*%
%TA.AperFunction,SMDPad,CuDef*%
%ADD11RoundRect,0.062500X-0.175000X-0.062500X0.175000X-0.062500X0.175000X0.062500X-0.175000X0.062500X0*%
%TD*%
%TA.AperFunction,SMDPad,CuDef*%
%ADD12RoundRect,0.062500X-0.062500X-0.175000X0.062500X-0.175000X0.062500X0.175000X-0.062500X0.175000X0*%
%TD*%
%TA.AperFunction,SMDPad,CuDef*%
%ADD13RoundRect,0.150000X0.425000X-0.150000X0.425000X0.150000X-0.425000X0.150000X-0.425000X-0.150000X0*%
%TD*%
%TA.AperFunction,SMDPad,CuDef*%
%ADD14RoundRect,0.075000X0.500000X-0.075000X0.500000X0.075000X-0.500000X0.075000X-0.500000X-0.075000X0*%
%TD*%
%TA.AperFunction,SMDPad,CuDef*%
%ADD15RoundRect,0.250000X0.750000X-0.840000X0.750000X0.840000X-0.750000X0.840000X-0.750000X-0.840000X0*%
%TD*%
%TA.AperFunction,SMDPad,CuDef*%
%ADD16RoundRect,0.175000X-0.725000X-0.175000X0.725000X-0.175000X0.725000X0.175000X-0.725000X0.175000X0*%
%TD*%
%TA.AperFunction,SMDPad,CuDef*%
%ADD17RoundRect,0.200000X-0.700000X-0.200000X0.700000X-0.200000X0.700000X0.200000X-0.700000X0.200000X0*%
%TD*%
%TA.AperFunction,SMDPad,CuDef*%
%ADD18RoundRect,0.225000X0.250000X-0.225000X0.250000X0.225000X-0.250000X0.225000X-0.250000X-0.225000X0*%
%TD*%
%TA.AperFunction,SMDPad,CuDef*%
%ADD19R,1.400000X1.200000*%
%TD*%
%TA.AperFunction,SMDPad,CuDef*%
%ADD20R,1.000000X0.800000*%
%TD*%
%TA.AperFunction,SMDPad,CuDef*%
%ADD21RoundRect,0.200000X0.275000X-0.200000X0.275000X0.200000X-0.275000X0.200000X-0.275000X-0.200000X0*%
%TD*%
%TA.AperFunction,SMDPad,CuDef*%
%ADD22RoundRect,0.200000X-0.200000X-0.275000X0.200000X-0.275000X0.200000X0.275000X-0.200000X0.275000X0*%
%TD*%
%TA.AperFunction,SMDPad,CuDef*%
%ADD23C,1.000000*%
%TD*%
%TA.AperFunction,SMDPad,CuDef*%
%ADD24RoundRect,0.225000X-0.225000X-0.250000X0.225000X-0.250000X0.225000X0.250000X-0.225000X0.250000X0*%
%TD*%
%TA.AperFunction,SMDPad,CuDef*%
%ADD25RoundRect,0.200000X-0.275000X0.200000X-0.275000X-0.200000X0.275000X-0.200000X0.275000X0.200000X0*%
%TD*%
%TA.AperFunction,SMDPad,CuDef*%
%ADD26RoundRect,0.250000X-0.475000X0.250000X-0.475000X-0.250000X0.475000X-0.250000X0.475000X0.250000X0*%
%TD*%
%TA.AperFunction,SMDPad,CuDef*%
%ADD27R,1.050000X0.650000*%
%TD*%
%TA.AperFunction,SMDPad,CuDef*%
%ADD28RoundRect,0.125000X-0.250000X-0.125000X0.250000X-0.125000X0.250000X0.125000X-0.250000X0.125000X0*%
%TD*%
%TA.AperFunction,HeatsinkPad*%
%ADD29R,3.400000X4.300000*%
%TD*%
%TA.AperFunction,SMDPad,CuDef*%
%ADD30R,0.250000X0.275000*%
%TD*%
%TA.AperFunction,SMDPad,CuDef*%
%ADD31R,0.275000X0.250000*%
%TD*%
%TA.AperFunction,SMDPad,CuDef*%
%ADD32R,0.950000X0.550000*%
%TD*%
%TA.AperFunction,SMDPad,CuDef*%
%ADD33RoundRect,0.225000X-0.250000X0.225000X-0.250000X-0.225000X0.250000X-0.225000X0.250000X0.225000X0*%
%TD*%
%TA.AperFunction,SMDPad,CuDef*%
%ADD34RoundRect,0.200000X0.200000X0.275000X-0.200000X0.275000X-0.200000X-0.275000X0.200000X-0.275000X0*%
%TD*%
%TA.AperFunction,SMDPad,CuDef*%
%ADD35RoundRect,0.225000X0.225000X0.250000X-0.225000X0.250000X-0.225000X-0.250000X0.225000X-0.250000X0*%
%TD*%
%TA.AperFunction,SMDPad,CuDef*%
%ADD36RoundRect,0.150000X0.150000X0.625000X-0.150000X0.625000X-0.150000X-0.625000X0.150000X-0.625000X0*%
%TD*%
%TA.AperFunction,SMDPad,CuDef*%
%ADD37RoundRect,0.250000X0.350000X0.650000X-0.350000X0.650000X-0.350000X-0.650000X0.350000X-0.650000X0*%
%TD*%
%TA.AperFunction,SMDPad,CuDef*%
%ADD38R,0.670000X0.300000*%
%TD*%
%TA.AperFunction,SMDPad,CuDef*%
%ADD39R,0.650000X1.050000*%
%TD*%
%TA.AperFunction,SMDPad,CuDef*%
%ADD40R,0.800000X0.750000*%
%TD*%
%TA.AperFunction,SMDPad,CuDef*%
%ADD41R,0.300000X0.500000*%
%TD*%
%TA.AperFunction,SMDPad,CuDef*%
%ADD42R,1.014000X0.762000*%
%TD*%
%TA.AperFunction,SMDPad,CuDef*%
%ADD43R,1.014000X2.290000*%
%TD*%
%TA.AperFunction,SMDPad,CuDef*%
%ADD44R,1.200000X0.700000*%
%TD*%
%TA.AperFunction,SMDPad,CuDef*%
%ADD45R,0.800000X1.000000*%
%TD*%
%TA.AperFunction,SMDPad,CuDef*%
%ADD46R,1.200000X1.000000*%
%TD*%
%TA.AperFunction,SMDPad,CuDef*%
%ADD47R,2.800000X1.000000*%
%TD*%
%TA.AperFunction,SMDPad,CuDef*%
%ADD48R,1.900000X1.300000*%
%TD*%
%TA.AperFunction,SMDPad,CuDef*%
%ADD49R,0.450000X1.050000*%
%TD*%
%TA.AperFunction,SMDPad,CuDef*%
%ADD50RoundRect,0.125000X-0.125000X0.125000X-0.125000X-0.125000X0.125000X-0.125000X0.125000X0.125000X0*%
%TD*%
%TA.AperFunction,SMDPad,CuDef*%
%ADD51RoundRect,0.250000X0.250000X1.500000X-0.250000X1.500000X-0.250000X-1.500000X0.250000X-1.500000X0*%
%TD*%
%TA.AperFunction,SMDPad,CuDef*%
%ADD52RoundRect,0.250001X0.499999X1.449999X-0.499999X1.449999X-0.499999X-1.449999X0.499999X-1.449999X0*%
%TD*%
%TA.AperFunction,SMDPad,CuDef*%
%ADD53R,0.600000X0.700000*%
%TD*%
%TA.AperFunction,SMDPad,CuDef*%
%ADD54RoundRect,0.250000X-0.850000X0.375000X-0.850000X-0.375000X0.850000X-0.375000X0.850000X0.375000X0*%
%TD*%
%TA.AperFunction,SMDPad,CuDef*%
%ADD55RoundRect,0.050000X-0.387500X-0.050000X0.387500X-0.050000X0.387500X0.050000X-0.387500X0.050000X0*%
%TD*%
%TA.AperFunction,SMDPad,CuDef*%
%ADD56RoundRect,0.050000X-0.050000X-0.387500X0.050000X-0.387500X0.050000X0.387500X-0.050000X0.387500X0*%
%TD*%
%TA.AperFunction,HeatsinkPad*%
%ADD57R,3.200000X3.200000*%
%TD*%
%TA.AperFunction,SMDPad,CuDef*%
%ADD58RoundRect,0.250000X-0.275000X-0.250000X0.275000X-0.250000X0.275000X0.250000X-0.275000X0.250000X0*%
%TD*%
%TA.AperFunction,SMDPad,CuDef*%
%ADD59RoundRect,0.250000X-0.850000X-0.275000X0.850000X-0.275000X0.850000X0.275000X-0.850000X0.275000X0*%
%TD*%
%TA.AperFunction,SMDPad,CuDef*%
%ADD60R,0.675000X0.250000*%
%TD*%
%TA.AperFunction,SMDPad,CuDef*%
%ADD61R,0.250000X0.675000*%
%TD*%
%TA.AperFunction,SMDPad,CuDef*%
%ADD62R,0.700000X0.600000*%
%TD*%
%TA.AperFunction,SMDPad,CuDef*%
%ADD63RoundRect,0.250000X0.750000X0.750000X-0.750000X0.750000X-0.750000X-0.750000X0.750000X-0.750000X0*%
%TD*%
%TA.AperFunction,ViaPad*%
%ADD64C,0.508000*%
%TD*%
%TA.AperFunction,Conductor*%
%ADD65C,0.200000*%
%TD*%
%TA.AperFunction,Conductor*%
%ADD66C,0.228600*%
%TD*%
%TA.AperFunction,Conductor*%
%ADD67C,0.300000*%
%TD*%
G04 APERTURE END LIST*
%TO.N,GND*%
D10*
X7250000Y-25975000D02*
X9700000Y-25975000D01*
X9700000Y-26725000D01*
X7250000Y-26725000D01*
X7250000Y-25975000D01*
%TA.AperFunction,Conductor*%
G36*
X7250000Y-25975000D02*
G01*
X9700000Y-25975000D01*
X9700000Y-26725000D01*
X7250000Y-26725000D01*
X7250000Y-25975000D01*
G37*
%TD.AperFunction*%
X29250500Y-6725500D02*
X30000500Y-6725500D01*
X30000500Y-9175500D01*
X29250500Y-9175500D01*
X29250500Y-6725500D01*
%TA.AperFunction,Conductor*%
G36*
X29250500Y-6725500D02*
G01*
X30000500Y-6725500D01*
X30000500Y-9175500D01*
X29250500Y-9175500D01*
X29250500Y-6725500D01*
G37*
%TD.AperFunction*%
X20012000Y-11969000D02*
X20762000Y-11969000D01*
X20762000Y-12719000D01*
X20012000Y-12719000D01*
X20012000Y-11969000D01*
%TA.AperFunction,Conductor*%
G36*
X20012000Y-11969000D02*
G01*
X20762000Y-11969000D01*
X20762000Y-12719000D01*
X20012000Y-12719000D01*
X20012000Y-11969000D01*
G37*
%TD.AperFunction*%
X30000500Y-6725500D02*
X31500500Y-6725500D01*
X31500500Y-9175500D01*
X30000500Y-9175500D01*
X30000500Y-6725500D01*
%TA.AperFunction,Conductor*%
G36*
X30000500Y-6725500D02*
G01*
X31500500Y-6725500D01*
X31500500Y-9175500D01*
X30000500Y-9175500D01*
X30000500Y-6725500D01*
G37*
%TD.AperFunction*%
X13985000Y-27400000D02*
X14735000Y-27400000D01*
X14735000Y-28150000D01*
X13985000Y-28150000D01*
X13985000Y-27400000D01*
%TA.AperFunction,Conductor*%
G36*
X13985000Y-27400000D02*
G01*
X14735000Y-27400000D01*
X14735000Y-28150000D01*
X13985000Y-28150000D01*
X13985000Y-27400000D01*
G37*
%TD.AperFunction*%
%TD*%
D11*
%TO.P,U3,1,AP_SDO/AP_AD0*%
%TO.N,+3V3*%
X3835000Y-23250000D03*
%TO.P,U3,2,RESV_2*%
%TO.N,unconnected-(U3-RESV_2-Pad2)*%
X3835000Y-23750000D03*
%TO.P,U3,3,RESV_3*%
%TO.N,unconnected-(U3-RESV_3-Pad3)*%
X3835000Y-24250000D03*
%TO.P,U3,4,INT1/INT*%
%TO.N,unconnected-(U3-INT1{slash}INT-Pad4)*%
X3835000Y-24750000D03*
D12*
%TO.P,U3,5,VDDIO*%
%TO.N,+3V3*%
X4500000Y-24915000D03*
%TO.P,U3,6,GND*%
%TO.N,GND*%
X5000000Y-24915000D03*
%TO.P,U3,7,RESV_7*%
%TO.N,unconnected-(U3-RESV_7-Pad7)*%
X5500000Y-24915000D03*
D11*
%TO.P,U3,8,VDD*%
%TO.N,+3V3*%
X6165000Y-24750000D03*
%TO.P,U3,9,INT2/FSYNC/CLKIN*%
%TO.N,GND*%
X6165000Y-24250000D03*
%TO.P,U3,10,RESV_10*%
%TO.N,unconnected-(U3-RESV_10-Pad10)*%
X6165000Y-23750000D03*
%TO.P,U3,11,RESV_11*%
%TO.N,unconnected-(U3-RESV_11-Pad11)*%
X6165000Y-23250000D03*
D12*
%TO.P,U3,12,AP_CS*%
%TO.N,+3V3*%
X5500000Y-23085000D03*
%TO.P,U3,13,AP_SCL/AP_SCLK*%
%TO.N,/I2C Bus 1/I2C_1_SCL*%
X5000000Y-23085000D03*
%TO.P,U3,14,AP_SDA/AP_SDIO/AP_SDI*%
%TO.N,/I2C Bus 1/I2C_1_SDA*%
X4500000Y-23085000D03*
%TD*%
D13*
%TO.P,J1,A1,GND*%
%TO.N,GND*%
X57140000Y-24950000D03*
%TO.P,J1,A4,VBUS*%
%TO.N,VBUS*%
X57140000Y-24150000D03*
D14*
%TO.P,J1,A5,CC1*%
%TO.N,Net-(J1-CC1)*%
X57140000Y-23000000D03*
%TO.P,J1,A6,D+*%
%TO.N,/USB_D+*%
X57140000Y-22000000D03*
%TO.P,J1,A7,D-*%
%TO.N,/USB_D-*%
X57140000Y-21500000D03*
%TO.P,J1,A8,SBU1*%
%TO.N,unconnected-(J1-SBU1-PadA8)*%
X57140000Y-20500000D03*
D13*
%TO.P,J1,A9,VBUS*%
%TO.N,VBUS*%
X57140000Y-19350000D03*
%TO.P,J1,A12,GND*%
%TO.N,GND*%
X57140000Y-18550000D03*
%TO.P,J1,B1,GND*%
X57140000Y-18550000D03*
%TO.P,J1,B4,VBUS*%
%TO.N,VBUS*%
X57140000Y-19350000D03*
D14*
%TO.P,J1,B5,CC2*%
%TO.N,Net-(J1-CC2)*%
X57140000Y-20000000D03*
%TO.P,J1,B6,D+*%
%TO.N,/USB_D+*%
X57140000Y-21000000D03*
%TO.P,J1,B7,D-*%
%TO.N,/USB_D-*%
X57140000Y-22500000D03*
%TO.P,J1,B8,SBU2*%
%TO.N,unconnected-(J1-SBU2-PadB8)*%
X57140000Y-23500000D03*
D13*
%TO.P,J1,B9,VBUS*%
%TO.N,VBUS*%
X57140000Y-24150000D03*
%TO.P,J1,B12,GND*%
%TO.N,GND*%
X57140000Y-24950000D03*
D15*
%TO.P,J1,S1,SHIELD*%
%TO.N,unconnected-(J1-SHIELD-PadS1)_2*%
X57715000Y-26860000D03*
%TO.N,unconnected-(J1-SHIELD-PadS1)_1*%
X61645000Y-26860000D03*
%TO.N,unconnected-(J1-SHIELD-PadS1)_3*%
X57715000Y-16640000D03*
%TO.N,unconnected-(J1-SHIELD-PadS1)*%
X61645000Y-16640000D03*
%TD*%
D16*
%TO.P,U12,1,GND*%
%TO.N,GND*%
X29951000Y-52002000D03*
D17*
%TO.P,U12,2,TXD*%
%TO.N,unconnected-(U12-TXD-Pad2)*%
X29951000Y-53102000D03*
%TO.P,U12,3,RXD*%
%TO.N,unconnected-(U12-RXD-Pad3)*%
X29951000Y-54202000D03*
%TO.P,U12,4,TIMEPULSE*%
%TO.N,unconnected-(U12-TIMEPULSE-Pad4)*%
X29951000Y-55302000D03*
%TO.P,U12,5,EXTINT*%
%TO.N,unconnected-(U12-EXTINT-Pad5)*%
X29951000Y-56402000D03*
%TO.P,U12,6,V_BCKP*%
%TO.N,unconnected-(U12-V_BCKP-Pad6)*%
X29951000Y-57502000D03*
%TO.P,U12,7,VCC_IO*%
%TO.N,+3V3*%
X29951000Y-58602000D03*
%TO.P,U12,8,VCC*%
X29951000Y-59702000D03*
D16*
%TO.P,U12,9,~{RESET}*%
%TO.N,Net-(U12-~{RESET})*%
X29951000Y-60802000D03*
%TO.P,U12,10,GND*%
%TO.N,GND*%
X39451000Y-60802000D03*
D17*
%TO.P,U12,11,RF_IN*%
%TO.N,Net-(AE1-A)*%
X39451000Y-59702000D03*
%TO.P,U12,12,GND*%
%TO.N,GND*%
X39451000Y-58602000D03*
%TO.P,U12,13,LNA_EN*%
%TO.N,unconnected-(U12-LNA_EN-Pad13)*%
X39451000Y-57502000D03*
%TO.P,U12,14,VCC_RF*%
%TO.N,unconnected-(U12-VCC_RF-Pad14)*%
X39451000Y-56402000D03*
%TO.P,U12,15,VIO_SEL*%
%TO.N,unconnected-(U12-VIO_SEL-Pad15)*%
X39451000Y-55302000D03*
%TO.P,U12,16,SDA*%
%TO.N,/I2C Bus 2/I2C_2_SDA*%
X39451000Y-54202000D03*
%TO.P,U12,17,SCL*%
%TO.N,/I2C Bus 2/I2C_2_SCL*%
X39451000Y-53102000D03*
D16*
%TO.P,U12,18,~{SAFEBOOT}*%
%TO.N,unconnected-(U12-~{SAFEBOOT}-Pad18)*%
X39451000Y-52002000D03*
%TD*%
D18*
%TO.P,C24,1*%
%TO.N,GND*%
X53440000Y-15950000D03*
%TO.P,C24,2*%
%TO.N,/PSU/+IN*%
X53440000Y-14400000D03*
%TD*%
D19*
%TO.P,Y1,1,OE*%
%TO.N,+3V3*%
X24482000Y-41005000D03*
%TO.P,Y1,2,GND*%
%TO.N,GND*%
X26682000Y-41005000D03*
%TO.P,Y1,3,OUT*%
%TO.N,/XIN*%
X26682000Y-39105000D03*
%TO.P,Y1,4,VDD*%
%TO.N,+3V3*%
X24482000Y-39105000D03*
%TD*%
D20*
%TO.P,LED1,1,K*%
%TO.N,Net-(LED1-K)*%
X56865000Y-14010000D03*
%TO.P,LED1,2,A*%
%TO.N,VBUS*%
X58565000Y-14010000D03*
%TD*%
D21*
%TO.P,R20,1*%
%TO.N,/PSU/+SNS*%
X46565000Y-9247000D03*
%TO.P,R20,2*%
%TO.N,Net-(U8-IN-)*%
X46565000Y-7597000D03*
%TD*%
D22*
%TO.P,R1,1*%
%TO.N,Net-(Q2-G)*%
X15715000Y-38180000D03*
%TO.P,R1,2*%
%TO.N,GND*%
X17365000Y-38180000D03*
%TD*%
D23*
%TO.P,TP3,1,1*%
%TO.N,/CARD_DET*%
X58550000Y-48480000D03*
%TD*%
%TO.P,TP2,1,1*%
%TO.N,/RUN*%
X38101000Y-41125000D03*
%TD*%
D24*
%TO.P,C20,1*%
%TO.N,Net-(U8-IN+)*%
X44940000Y-5972000D03*
%TO.P,C20,2*%
%TO.N,Net-(U8-IN-)*%
X46490000Y-5972000D03*
%TD*%
%TO.P,C22,1*%
%TO.N,+3V3*%
X33208000Y-34375000D03*
%TO.P,C22,2*%
%TO.N,GND*%
X34758000Y-34375000D03*
%TD*%
D25*
%TO.P,R7,1*%
%TO.N,Net-(LED1-K)*%
X55140000Y-14350000D03*
%TO.P,R7,2*%
%TO.N,GND*%
X55140000Y-16000000D03*
%TD*%
D26*
%TO.P,C17,1*%
%TO.N,+3V3*%
X22337000Y-10105000D03*
%TO.P,C17,2*%
%TO.N,GND*%
X22337000Y-12005000D03*
%TD*%
D27*
%TO.P,SW1,1,1*%
%TO.N,/BOOTSEL*%
X24722500Y-20840000D03*
X20572500Y-20840000D03*
%TO.P,SW1,2,2*%
%TO.N,GND*%
X24722500Y-18690000D03*
X20597500Y-18690000D03*
%TD*%
D18*
%TO.P,C10,1*%
%TO.N,GND*%
X9385000Y-24775000D03*
%TO.P,C10,2*%
%TO.N,+3V3*%
X9385000Y-23225000D03*
%TD*%
D28*
%TO.P,U2,1,~{CS}*%
%TO.N,/QSPI_SS*%
X19947500Y-22590000D03*
%TO.P,U2,2,DO(IO1)*%
%TO.N,/QSPI_SD1*%
X19947500Y-23860000D03*
%TO.P,U2,3,IO2*%
%TO.N,/QSPI_SD2*%
X19947500Y-25130000D03*
%TO.P,U2,4,GND*%
%TO.N,GND*%
X19947500Y-26400000D03*
%TO.P,U2,5,DI(IO0)*%
%TO.N,/QSPI_SD0*%
X25347500Y-26400000D03*
%TO.P,U2,6,CLK*%
%TO.N,/QSPI_SCLK*%
X25347500Y-25130000D03*
%TO.P,U2,7,IO3*%
%TO.N,/QSPI_SD3*%
X25347500Y-23860000D03*
%TO.P,U2,8,VCC*%
%TO.N,+3V3*%
X25347500Y-22590000D03*
D29*
%TO.P,U2,9,EP*%
%TO.N,GND*%
X22647500Y-24495000D03*
%TD*%
D25*
%TO.P,R21,1*%
%TO.N,+3V3*%
X6350000Y-20195000D03*
%TO.P,R21,2*%
%TO.N,/I2C Bus 1/I2C_1_SCL*%
X6350000Y-21845000D03*
%TD*%
D30*
%TO.P,U5,1,SCL/SPC*%
%TO.N,/I2C Bus 2/I2C_2_SCL*%
X49287500Y-53145500D03*
%TO.P,U5,2,GND*%
%TO.N,GND*%
X48787500Y-53145500D03*
%TO.P,U5,3,GND*%
X48287500Y-53145500D03*
%TO.P,U5,4,C1*%
%TO.N,Net-(U5-C1)*%
X47787500Y-53145500D03*
D31*
%TO.P,U5,5,Vdd*%
%TO.N,+3V3*%
X47775000Y-53658000D03*
%TO.P,U5,6,Vdd_IO*%
X47775000Y-54158000D03*
D30*
%TO.P,U5,7,INT*%
%TO.N,unconnected-(U5-INT-Pad7)*%
X47787500Y-54670500D03*
%TO.P,U5,8,DRDY*%
%TO.N,unconnected-(U5-DRDY-Pad8)*%
X48287500Y-54670500D03*
%TO.P,U5,9,SDO/SA1*%
%TO.N,GND*%
X48787500Y-54670500D03*
%TO.P,U5,10,~{CS}*%
%TO.N,+3V3*%
X49287500Y-54670500D03*
D31*
%TO.P,U5,11,SDA/SDI/SDO*%
%TO.N,/I2C Bus 2/I2C_2_SDA*%
X49300000Y-54158000D03*
%TO.P,U5,12,GND*%
%TO.N,GND*%
X49300000Y-53658000D03*
%TD*%
D18*
%TO.P,C18,1*%
%TO.N,GND*%
X48790000Y-5768000D03*
%TO.P,C18,2*%
%TO.N,/PSU/+IN*%
X48790000Y-4218000D03*
%TD*%
D32*
%TO.P,U9,1,VDD*%
%TO.N,+3V3*%
X22721000Y-53027000D03*
%TO.P,U9,2,PS*%
X22721000Y-54277000D03*
%TO.P,U9,3,GND*%
%TO.N,GND*%
X22721000Y-55527000D03*
%TO.P,U9,4,CSB*%
X22721000Y-56777000D03*
%TO.P,U9,5,CSB*%
X24871000Y-56777000D03*
%TO.P,U9,6,SDO*%
%TO.N,unconnected-(U9-SDO-Pad6)*%
X24871000Y-55527000D03*
%TO.P,U9,7,SDI/SDA*%
%TO.N,/I2C Bus 2/I2C_2_SDA*%
X24871000Y-54277000D03*
%TO.P,U9,8,SCLK*%
%TO.N,/I2C Bus 2/I2C_2_SCL*%
X24871000Y-53027000D03*
%TD*%
D33*
%TO.P,C5,1*%
%TO.N,GND*%
X12411000Y-54882000D03*
%TO.P,C5,2*%
%TO.N,+3V3*%
X12411000Y-56432000D03*
%TD*%
D34*
%TO.P,R5,1*%
%TO.N,/USB_D+*%
X31632500Y-24875000D03*
%TO.P,R5,2*%
%TO.N,/CPU_USB_D+*%
X29982500Y-24875000D03*
%TD*%
D35*
%TO.P,C12,1*%
%TO.N,GND*%
X14360000Y-26175000D03*
%TO.P,C12,2*%
%TO.N,+3V3*%
X12810000Y-26175000D03*
%TD*%
D33*
%TO.P,C3,1*%
%TO.N,GND*%
X44687000Y-53363000D03*
%TO.P,C3,2*%
%TO.N,+3V3*%
X44687000Y-54913000D03*
%TD*%
D21*
%TO.P,R3,1*%
%TO.N,GND*%
X54990000Y-25050000D03*
%TO.P,R3,2*%
%TO.N,Net-(J1-CC1)*%
X54990000Y-23400000D03*
%TD*%
D36*
%TO.P,J4,1,Pin_1*%
%TO.N,/SWDIO*%
X35701000Y-43879000D03*
%TO.P,J4,2,Pin_2*%
%TO.N,GND*%
X34701000Y-43879000D03*
%TO.P,J4,3,Pin_3*%
%TO.N,/SWCLK*%
X33701000Y-43879000D03*
D37*
%TO.P,J4,MP*%
%TO.N,GND*%
X37001000Y-46404000D03*
X32401000Y-46404000D03*
%TD*%
D34*
%TO.P,R6,1*%
%TO.N,/USB_D-*%
X31632500Y-26575000D03*
%TO.P,R6,2*%
%TO.N,/CPU_USB_D-*%
X29982500Y-26575000D03*
%TD*%
D38*
%TO.P,U7,1,VOUT*%
%TO.N,+3V3*%
X20277100Y-7905000D03*
%TO.P,U7,2,LX2*%
%TO.N,Net-(U7-LX2)*%
X20277100Y-7405000D03*
%TO.P,U7,3,LX1*%
%TO.N,Net-(U7-LX1)*%
X20277100Y-6905000D03*
%TO.P,U7,4,VIN*%
%TO.N,/PSU/-IN*%
X20277100Y-6405000D03*
%TO.P,U7,5,EN*%
X18797100Y-6405000D03*
%TO.P,U7,6,MODE*%
%TO.N,Net-(U7-MODE)*%
X18797100Y-6905000D03*
%TO.P,U7,7,GND*%
%TO.N,GND*%
X18797100Y-7405000D03*
%TO.P,U7,8,FB*%
%TO.N,/PSU/TPS_FB*%
X18797100Y-7905000D03*
%TD*%
D18*
%TO.P,C14,1*%
%TO.N,/PSU/-IN*%
X22087000Y-4255000D03*
%TO.P,C14,2*%
%TO.N,GND*%
X22087000Y-2705000D03*
%TD*%
D33*
%TO.P,C26,1*%
%TO.N,+3V3*%
X27707500Y-23190000D03*
%TO.P,C26,2*%
%TO.N,GND*%
X27707500Y-24740000D03*
%TD*%
%TO.P,C28,1*%
%TO.N,+3V3*%
X29111500Y-40349500D03*
%TO.P,C28,2*%
%TO.N,GND*%
X29111500Y-41899500D03*
%TD*%
D35*
%TO.P,C1,1*%
%TO.N,GND*%
X49082500Y-51733000D03*
%TO.P,C1,2*%
%TO.N,Net-(U5-C1)*%
X47532500Y-51733000D03*
%TD*%
D33*
%TO.P,C32,1*%
%TO.N,+1V1*%
X30571500Y-40349500D03*
%TO.P,C32,2*%
%TO.N,GND*%
X30571500Y-41899500D03*
%TD*%
D21*
%TO.P,R16,1*%
%TO.N,/PSU/-IN*%
X16987000Y-6380000D03*
%TO.P,R16,2*%
%TO.N,GND*%
X16987000Y-4730000D03*
%TD*%
D39*
%TO.P,SW2,1,1*%
%TO.N,/USR_BTN*%
X15215000Y-41025000D03*
X15215000Y-45175000D03*
%TO.P,SW2,2,2*%
%TO.N,GND*%
X13065000Y-41025000D03*
X13065000Y-45150000D03*
%TD*%
D34*
%TO.P,R2,1*%
%TO.N,/BUZZER_CTL*%
X17365000Y-31820000D03*
%TO.P,R2,2*%
%TO.N,Net-(Q2-G)*%
X15715000Y-31820000D03*
%TD*%
%TO.P,R25,1*%
%TO.N,/USR_LED*%
X9125000Y-43000000D03*
%TO.P,R25,2*%
%TO.N,Net-(Q1-G)*%
X7475000Y-43000000D03*
%TD*%
D21*
%TO.P,R19,1*%
%TO.N,/PSU/-SNS*%
X44865000Y-9247000D03*
%TO.P,R19,2*%
%TO.N,Net-(U8-IN+)*%
X44865000Y-7597000D03*
%TD*%
D18*
%TO.P,C19,1*%
%TO.N,GND*%
X50490000Y-5768000D03*
%TO.P,C19,2*%
%TO.N,/PSU/+IN*%
X50490000Y-4218000D03*
%TD*%
%TO.P,C33,1*%
%TO.N,+1V1*%
X27707500Y-27940000D03*
%TO.P,C33,2*%
%TO.N,GND*%
X27707500Y-26390000D03*
%TD*%
D35*
%TO.P,C11,1*%
%TO.N,GND*%
X6050000Y-26435000D03*
%TO.P,C11,2*%
%TO.N,+3V3*%
X4500000Y-26435000D03*
%TD*%
D24*
%TO.P,C30,1*%
%TO.N,+3V3*%
X32958000Y-29975000D03*
%TO.P,C30,2*%
%TO.N,GND*%
X34508000Y-29975000D03*
%TD*%
D23*
%TO.P,TP1,1,1*%
%TO.N,/BOOTSEL*%
X18347500Y-19000000D03*
%TD*%
D24*
%TO.P,C21,1*%
%TO.N,+3V3*%
X24807000Y-43335000D03*
%TO.P,C21,2*%
%TO.N,GND*%
X26357000Y-43335000D03*
%TD*%
D18*
%TO.P,C7,1*%
%TO.N,GND*%
X21021000Y-55052000D03*
%TO.P,C7,2*%
%TO.N,+3V3*%
X21021000Y-53502000D03*
%TD*%
D21*
%TO.P,R12,1*%
%TO.N,+3V3*%
X18687000Y-10819000D03*
%TO.P,R12,2*%
%TO.N,/PSU/TPS_FB*%
X18687000Y-9169000D03*
%TD*%
D23*
%TO.P,TP4,1,1*%
%TO.N,Net-(U12-~{RESET})*%
X29951000Y-63152000D03*
%TD*%
D40*
%TO.P,LED2,1,K*%
%TO.N,Net-(LED2-K)*%
X7470000Y-49830000D03*
%TO.P,LED2,2,A*%
%TO.N,+3V3*%
X5870000Y-49830000D03*
%TD*%
D38*
%TO.P,U11,1,GND*%
%TO.N,GND*%
X50400000Y-14175000D03*
%TO.P,U11,2,VOUT*%
%TO.N,/PSU/+IN*%
X50400000Y-14675000D03*
%TO.P,U11,3,VIN1*%
%TO.N,+BATT*%
X50400000Y-15175000D03*
%TO.P,U11,4,ON*%
%TO.N,GND*%
X50400000Y-15675000D03*
%TO.P,U11,5,GND*%
X51880000Y-15675000D03*
%TO.P,U11,6,VIN2*%
%TO.N,VBUS*%
X51880000Y-15175000D03*
%TO.P,U11,7,VOUT*%
%TO.N,/PSU/+IN*%
X51880000Y-14675000D03*
%TO.P,U11,8,ST*%
%TO.N,/PSU/POR_ST*%
X51880000Y-14175000D03*
%TD*%
D18*
%TO.P,C15,1*%
%TO.N,/PSU/-IN*%
X20387000Y-5091000D03*
%TO.P,C15,2*%
%TO.N,GND*%
X20387000Y-3541000D03*
%TD*%
D41*
%TO.P,U6,1,SDA*%
%TO.N,/I2C Bus 1/I2C_1_SDA*%
X13985000Y-23300000D03*
%TO.P,U6,2,SCL*%
%TO.N,/I2C Bus 1/I2C_1_SCL*%
X13185000Y-23300000D03*
%TO.P,U6,3,VDD*%
%TO.N,+3V3*%
X13185000Y-24700000D03*
%TO.P,U6,4,VSS*%
%TO.N,GND*%
X13985000Y-24700000D03*
%TD*%
D25*
%TO.P,R10,1*%
%TO.N,+3V3*%
X20592000Y-38160000D03*
%TO.P,R10,2*%
%TO.N,/I2C Bus 2/I2C_2_SDA*%
X20592000Y-39810000D03*
%TD*%
D42*
%TO.P,R17,1,1*%
%TO.N,/PSU/-SNS*%
X44827000Y-11028000D03*
D43*
%TO.P,R17,2,2*%
%TO.N,/PSU/-IN*%
X44827000Y-12935000D03*
%TO.P,R17,3,3*%
%TO.N,/PSU/+IN*%
X46603000Y-12935000D03*
D42*
%TO.P,R17,4,4*%
%TO.N,/PSU/+SNS*%
X46603000Y-11028000D03*
%TD*%
D25*
%TO.P,R18,1*%
%TO.N,+3V3*%
X3150000Y-20195000D03*
%TO.P,R18,2*%
%TO.N,/I2C Bus 1/I2C_1_SDA*%
X3150000Y-21845000D03*
%TD*%
D21*
%TO.P,R13,1*%
%TO.N,/PSU/TPS_FB*%
X16987000Y-9580000D03*
%TO.P,R13,2*%
%TO.N,GND*%
X16987000Y-7930000D03*
%TD*%
D33*
%TO.P,C2,1*%
%TO.N,GND*%
X46387000Y-53363000D03*
%TO.P,C2,2*%
%TO.N,+3V3*%
X46387000Y-54913000D03*
%TD*%
D44*
%TO.P,J2,1,DAT2*%
%TO.N,/DAT2*%
X48050000Y-35880000D03*
%TO.P,J2,2,DAT3/CD*%
%TO.N,/DAT3{slash}CS*%
X48050000Y-36980000D03*
%TO.P,J2,3,CMD*%
%TO.N,/CMD{slash}MOSI*%
X48050000Y-38080000D03*
%TO.P,J2,4,VDD*%
%TO.N,+3V3*%
X48050000Y-39180000D03*
%TO.P,J2,5,CLK*%
%TO.N,/SD_CLK*%
X48050000Y-40280000D03*
%TO.P,J2,6,VSS*%
%TO.N,GND*%
X48050000Y-41380000D03*
%TO.P,J2,7,DAT0*%
%TO.N,/DAT0{slash}MISO*%
X48050000Y-42480000D03*
%TO.P,J2,8,DAT1*%
%TO.N,/DAT1*%
X48050000Y-43580000D03*
%TO.P,J2,9,DET_B*%
%TO.N,GND*%
X48050000Y-44530000D03*
D45*
%TO.P,J2,10,DET_A*%
%TO.N,/CARD_DET*%
X58550000Y-45480000D03*
D46*
%TO.P,J2,11,SHIELD*%
%TO.N,GND*%
X52350000Y-45480000D03*
D47*
X62700000Y-45480000D03*
D46*
X48050000Y-34330000D03*
D48*
X63150000Y-31980000D03*
%TD*%
D21*
%TO.P,R15,1*%
%TO.N,Net-(U7-MODE)*%
X18687000Y-5141000D03*
%TO.P,R15,2*%
%TO.N,GND*%
X18687000Y-3491000D03*
%TD*%
D49*
%TO.P,U8,1,IN+*%
%TO.N,Net-(U8-IN+)*%
X45390000Y-4218000D03*
%TO.P,U8,2,IN-*%
%TO.N,Net-(U8-IN-)*%
X46040000Y-4218000D03*
%TO.P,U8,3,GND*%
%TO.N,GND*%
X46690000Y-4218000D03*
%TO.P,U8,4,VS*%
%TO.N,/PSU/+IN*%
X47340000Y-4218000D03*
%TO.P,U8,5,SCL*%
%TO.N,/I2C Bus 1/I2C_1_SCL*%
X47340000Y-1618000D03*
%TO.P,U8,6,SDA*%
%TO.N,/I2C Bus 1/I2C_1_SDA*%
X46690000Y-1618000D03*
%TO.P,U8,7,A0*%
%TO.N,GND*%
X46040000Y-1618000D03*
%TO.P,U8,8,ALERT*%
%TO.N,/PSU/PMON_ALERT*%
X45390000Y-1618000D03*
%TD*%
D18*
%TO.P,C13,1*%
%TO.N,+3V3*%
X27707500Y-21540000D03*
%TO.P,C13,2*%
%TO.N,GND*%
X27707500Y-19990000D03*
%TD*%
D25*
%TO.P,R4,1*%
%TO.N,GND*%
X54990000Y-18350000D03*
%TO.P,R4,2*%
%TO.N,Net-(J1-CC2)*%
X54990000Y-20000000D03*
%TD*%
D24*
%TO.P,C35,1*%
%TO.N,GND*%
X26301000Y-60377000D03*
%TO.P,C35,2*%
%TO.N,+3V3*%
X27851000Y-60377000D03*
%TD*%
D50*
%TO.P,D1,1,K*%
%TO.N,+3V3*%
X13240000Y-33900000D03*
%TO.P,D1,2,A*%
%TO.N,Net-(BZ1--)*%
X13240000Y-36100000D03*
%TD*%
D51*
%TO.P,J3,1,Pin_1*%
%TO.N,+BATT*%
X33500000Y-7950000D03*
%TO.P,J3,2,Pin_2*%
%TO.N,GND*%
X31500000Y-7950000D03*
D52*
%TO.P,J3,MP*%
%TO.N,N/C*%
X35850000Y-2200000D03*
X29150000Y-2200000D03*
%TD*%
D18*
%TO.P,C25,1*%
%TO.N,/PSU/+IN*%
X48840000Y-14375000D03*
%TO.P,C25,2*%
%TO.N,GND*%
X48840000Y-12825000D03*
%TD*%
D21*
%TO.P,R14,1*%
%TO.N,/PSU/-IN*%
X15287000Y-7980000D03*
%TO.P,R14,2*%
%TO.N,Net-(U7-MODE)*%
X15287000Y-6330000D03*
%TD*%
D18*
%TO.P,C4,1*%
%TO.N,GND*%
X18061000Y-56457000D03*
%TO.P,C4,2*%
%TO.N,+3V3*%
X18061000Y-54907000D03*
%TD*%
D53*
%TO.P,Q1,1,G*%
%TO.N,Net-(Q1-G)*%
X7770000Y-45080000D03*
%TO.P,Q1,2,S*%
%TO.N,GND*%
X5870000Y-45080000D03*
%TO.P,Q1,3,D*%
%TO.N,Net-(Q1-D)*%
X6820000Y-47080000D03*
%TD*%
D54*
%TO.P,L1,1,1*%
%TO.N,Net-(U7-LX1)*%
X22543000Y-6080000D03*
%TO.P,L1,2,2*%
%TO.N,Net-(U7-LX2)*%
X22543000Y-8230000D03*
%TD*%
D34*
%TO.P,R24,1*%
%TO.N,Net-(Q1-G)*%
X6165000Y-43000000D03*
%TO.P,R24,2*%
%TO.N,GND*%
X4515000Y-43000000D03*
%TD*%
D24*
%TO.P,C31,1*%
%TO.N,+1V1*%
X30032500Y-28275000D03*
%TO.P,C31,2*%
%TO.N,GND*%
X31582500Y-28275000D03*
%TD*%
D18*
%TO.P,C6,1*%
%TO.N,GND*%
X7685000Y-24775000D03*
%TO.P,C6,2*%
%TO.N,+3V3*%
X7685000Y-23225000D03*
%TD*%
D25*
%TO.P,R9,1*%
%TO.N,+3V3*%
X22052000Y-38160000D03*
%TO.P,R9,2*%
%TO.N,/I2C Bus 2/I2C_2_SCL*%
X22052000Y-39810000D03*
%TD*%
D24*
%TO.P,C34,1*%
%TO.N,GND*%
X26301000Y-58677000D03*
%TO.P,C34,2*%
%TO.N,+3V3*%
X27851000Y-58677000D03*
%TD*%
D21*
%TO.P,R8,1*%
%TO.N,/SWCLK*%
X33701000Y-41949000D03*
%TO.P,R8,2*%
%TO.N,Net-(U1-SWCLK)*%
X33701000Y-40299000D03*
%TD*%
D55*
%TO.P,U1,1,IOVDD*%
%TO.N,+3V3*%
X24445000Y-30775000D03*
%TO.P,U1,2,GPIO0*%
%TO.N,/I2C Bus 1/I2C_1_SDA*%
X24445000Y-31175000D03*
%TO.P,U1,3,GPIO1*%
%TO.N,/I2C Bus 1/I2C_1_SCL*%
X24445000Y-31575000D03*
%TO.P,U1,4,GPIO2*%
%TO.N,unconnected-(U1-GPIO2-Pad4)*%
X24445000Y-31975000D03*
%TO.P,U1,5,GPIO3*%
%TO.N,unconnected-(U1-GPIO3-Pad5)*%
X24445000Y-32375000D03*
%TO.P,U1,6,GPIO4*%
%TO.N,unconnected-(U1-GPIO4-Pad6)*%
X24445000Y-32775000D03*
%TO.P,U1,7,GPIO5*%
%TO.N,/BUZZER_CTL*%
X24445000Y-33175000D03*
%TO.P,U1,8,GPIO6*%
%TO.N,/USR_LED*%
X24445000Y-33575000D03*
%TO.P,U1,9,GPIO7*%
%TO.N,/USR_BTN*%
X24445000Y-33975000D03*
%TO.P,U1,10,IOVDD*%
%TO.N,+3V3*%
X24445000Y-34375000D03*
%TO.P,U1,11,GPIO8*%
%TO.N,unconnected-(U1-GPIO8-Pad11)*%
X24445000Y-34775000D03*
%TO.P,U1,12,GPIO9*%
%TO.N,unconnected-(U1-GPIO9-Pad12)*%
X24445000Y-35175000D03*
%TO.P,U1,13,GPIO10*%
%TO.N,/I2C Bus 2/I2C_2_SDA*%
X24445000Y-35575000D03*
%TO.P,U1,14,GPIO11*%
%TO.N,/I2C Bus 2/I2C_2_SCL*%
X24445000Y-35975000D03*
D56*
%TO.P,U1,15,GPIO12*%
%TO.N,unconnected-(U1-GPIO12-Pad15)*%
X25282500Y-36812500D03*
%TO.P,U1,16,GPIO13*%
%TO.N,unconnected-(U1-GPIO13-Pad16)*%
X25682500Y-36812500D03*
%TO.P,U1,17,GPIO14*%
%TO.N,unconnected-(U1-GPIO14-Pad17)*%
X26082500Y-36812500D03*
%TO.P,U1,18,GPIO15*%
%TO.N,unconnected-(U1-GPIO15-Pad18)*%
X26482500Y-36812500D03*
%TO.P,U1,19,TESTEN*%
%TO.N,GND*%
X26882500Y-36812500D03*
%TO.P,U1,20,XIN*%
%TO.N,/XIN*%
X27282500Y-36812500D03*
%TO.P,U1,21,XOUT*%
%TO.N,unconnected-(U1-XOUT-Pad21)*%
X27682500Y-36812500D03*
%TO.P,U1,22,IOVDD*%
%TO.N,+3V3*%
X28082500Y-36812500D03*
%TO.P,U1,23,DVDD*%
%TO.N,+1V1*%
X28482500Y-36812500D03*
%TO.P,U1,24,SWCLK*%
%TO.N,Net-(U1-SWCLK)*%
X28882500Y-36812500D03*
%TO.P,U1,25,SWD*%
%TO.N,Net-(U1-SWD)*%
X29282500Y-36812500D03*
%TO.P,U1,26,RUN*%
%TO.N,/RUN*%
X29682500Y-36812500D03*
%TO.P,U1,27,GPIO16*%
%TO.N,unconnected-(U1-GPIO16-Pad27)*%
X30082500Y-36812500D03*
%TO.P,U1,28,GPIO17*%
%TO.N,/CARD_DET*%
X30482500Y-36812500D03*
D55*
%TO.P,U1,29,GPIO18*%
%TO.N,/SD_CLK*%
X31320000Y-35975000D03*
%TO.P,U1,30,GPIO19*%
%TO.N,/CMD{slash}MOSI*%
X31320000Y-35575000D03*
%TO.P,U1,31,GPIO20*%
%TO.N,/DAT0{slash}MISO*%
X31320000Y-35175000D03*
%TO.P,U1,32,GPIO21*%
%TO.N,/DAT1*%
X31320000Y-34775000D03*
%TO.P,U1,33,IOVDD*%
%TO.N,+3V3*%
X31320000Y-34375000D03*
%TO.P,U1,34,GPIO22*%
%TO.N,/DAT2*%
X31320000Y-33975000D03*
%TO.P,U1,35,GPIO23*%
%TO.N,/DAT3{slash}CS*%
X31320000Y-33575000D03*
%TO.P,U1,36,GPIO24*%
%TO.N,unconnected-(U1-GPIO24-Pad36)*%
X31320000Y-33175000D03*
%TO.P,U1,37,GPIO25*%
%TO.N,unconnected-(U1-GPIO25-Pad37)*%
X31320000Y-32775000D03*
%TO.P,U1,38,GPIO26_ADC0*%
%TO.N,/AD0*%
X31320000Y-32375000D03*
%TO.P,U1,39,GPIO27_ADC1*%
%TO.N,/AD1*%
X31320000Y-31975000D03*
%TO.P,U1,40,GPIO28_ADC2*%
%TO.N,/AD2*%
X31320000Y-31575000D03*
%TO.P,U1,41,GPIO29_ADC3*%
%TO.N,/AD3*%
X31320000Y-31175000D03*
%TO.P,U1,42,IOVDD*%
%TO.N,+3V3*%
X31320000Y-30775000D03*
D56*
%TO.P,U1,43,ADC_AVDD*%
X30482500Y-29937500D03*
%TO.P,U1,44,VREG_IN*%
X30082500Y-29937500D03*
%TO.P,U1,45,VREG_VOUT*%
%TO.N,+1V1*%
X29682500Y-29937500D03*
%TO.P,U1,46,USB_DM*%
%TO.N,/CPU_USB_D-*%
X29282500Y-29937500D03*
%TO.P,U1,47,USB_DP*%
%TO.N,/CPU_USB_D+*%
X28882500Y-29937500D03*
%TO.P,U1,48,USB_VDD*%
%TO.N,+3V3*%
X28482500Y-29937500D03*
%TO.P,U1,49,IOVDD*%
X28082500Y-29937500D03*
%TO.P,U1,50,DVDD*%
%TO.N,+1V1*%
X27682500Y-29937500D03*
%TO.P,U1,51,QSPI_SD3*%
%TO.N,/QSPI_SD3*%
X27282500Y-29937500D03*
%TO.P,U1,52,QSPI_SCLK*%
%TO.N,/QSPI_SCLK*%
X26882500Y-29937500D03*
%TO.P,U1,53,QSPI_SD0*%
%TO.N,/QSPI_SD0*%
X26482500Y-29937500D03*
%TO.P,U1,54,QSPI_SD2*%
%TO.N,/QSPI_SD2*%
X26082500Y-29937500D03*
%TO.P,U1,55,QSPI_SD1*%
%TO.N,/QSPI_SD1*%
X25682500Y-29937500D03*
%TO.P,U1,56,QSPI_SS*%
%TO.N,/QSPI_SS*%
X25282500Y-29937500D03*
D57*
%TO.P,U1,57,GND*%
%TO.N,GND*%
X27882500Y-33375000D03*
%TD*%
D21*
%TO.P,R22,1*%
%TO.N,/SWDIO*%
X35701000Y-41949000D03*
%TO.P,R22,2*%
%TO.N,Net-(U1-SWD)*%
X35701000Y-40299000D03*
%TD*%
D58*
%TO.P,AE1,1,A*%
%TO.N,Net-(AE1-A)*%
X41626000Y-59702000D03*
D59*
%TO.P,AE1,2*%
%TO.N,GND*%
X43151000Y-58227000D03*
X43151000Y-61177000D03*
%TD*%
D60*
%TO.P,U4,1,INT2*%
%TO.N,unconnected-(U4-INT2-Pad1)*%
X13974000Y-56907000D03*
%TO.P,U4,2,NC*%
%TO.N,unconnected-(U4-NC-Pad2)*%
X13974000Y-56407000D03*
%TO.P,U4,3,VDD*%
%TO.N,+3V3*%
X13974000Y-55907000D03*
%TO.P,U4,4,GNDA*%
%TO.N,GND*%
X13974000Y-55407000D03*
%TO.P,U4,5,CSB2*%
%TO.N,unconnected-(U4-CSB2-Pad5)*%
X13974000Y-54907000D03*
%TO.P,U4,6,GNDIO*%
%TO.N,GND*%
X13974000Y-54407000D03*
%TO.P,U4,7,PS*%
%TO.N,+3V3*%
X13974000Y-53907000D03*
D61*
%TO.P,U4,8,SCL/SCK*%
%TO.N,/I2C Bus 2/I2C_2_SCL*%
X15236000Y-53397000D03*
D60*
%TO.P,U4,9,SDA/SDI*%
%TO.N,/I2C Bus 2/I2C_2_SDA*%
X16498000Y-53907000D03*
%TO.P,U4,10,SDO2*%
%TO.N,GND*%
X16498000Y-54407000D03*
%TO.P,U4,11,VDDIO*%
%TO.N,+3V3*%
X16498000Y-54907000D03*
%TO.P,U4,12,INT3*%
%TO.N,unconnected-(U4-INT3-Pad12)*%
X16498000Y-55407000D03*
%TO.P,U4,13,INT4*%
%TO.N,unconnected-(U4-INT4-Pad13)*%
X16498000Y-55907000D03*
%TO.P,U4,14,CSB1*%
%TO.N,unconnected-(U4-CSB1-Pad14)*%
X16498000Y-56407000D03*
%TO.P,U4,15,SDO1*%
%TO.N,GND*%
X16498000Y-56907000D03*
D61*
%TO.P,U4,16,INT1*%
%TO.N,unconnected-(U4-INT1-Pad16)*%
X15236000Y-57417000D03*
%TD*%
D62*
%TO.P,Q2,1,G*%
%TO.N,Net-(Q2-G)*%
X17540000Y-35950000D03*
%TO.P,Q2,2,S*%
%TO.N,GND*%
X17540000Y-34050000D03*
%TO.P,Q2,3,D*%
%TO.N,Net-(BZ1--)*%
X15540000Y-35000000D03*
%TD*%
D24*
%TO.P,C23,1*%
%TO.N,+3V3*%
X32958000Y-31675000D03*
%TO.P,C23,2*%
%TO.N,GND*%
X34508000Y-31675000D03*
%TD*%
D35*
%TO.P,C27,1*%
%TO.N,+3V3*%
X22808000Y-30025000D03*
%TO.P,C27,2*%
%TO.N,GND*%
X21258000Y-30025000D03*
%TD*%
D33*
%TO.P,C16,1*%
%TO.N,+3V3*%
X20387000Y-9219000D03*
%TO.P,C16,2*%
%TO.N,GND*%
X20387000Y-10769000D03*
%TD*%
D21*
%TO.P,R11,1*%
%TO.N,/QSPI_SS*%
X18347500Y-22440000D03*
%TO.P,R11,2*%
%TO.N,/BOOTSEL*%
X18347500Y-20790000D03*
%TD*%
D35*
%TO.P,C29,1*%
%TO.N,+3V3*%
X22808000Y-34750000D03*
%TO.P,C29,2*%
%TO.N,GND*%
X21258000Y-34750000D03*
%TD*%
D21*
%TO.P,R23,1*%
%TO.N,Net-(LED2-K)*%
X10000000Y-47775000D03*
%TO.P,R23,2*%
%TO.N,Net-(Q1-D)*%
X10000000Y-46125000D03*
%TD*%
D63*
%TO.P,BZ1,1,+*%
%TO.N,+3V3*%
X9940000Y-30100000D03*
%TO.P,BZ1,2,-*%
%TO.N,Net-(BZ1--)*%
X9940000Y-39900000D03*
%TO.P,BZ1,MP*%
%TO.N,N/C*%
X3540000Y-30100000D03*
X3540000Y-39900000D03*
%TD*%
D64*
%TO.N,/DAT0{slash}MISO*%
X43181000Y-42480000D03*
X45381000Y-42480000D03*
%TO.N,/SD_CLK*%
X43181000Y-40280000D03*
X35869418Y-36700000D03*
%TO.N,/CMD{slash}MOSI*%
X36550000Y-36200000D03*
X40981000Y-38080000D03*
%TO.N,/I2C Bus 2/I2C_2_SCL*%
X15986000Y-53059500D03*
X26096000Y-53027000D03*
X50212500Y-53145500D03*
X41101000Y-53102000D03*
%TO.N,/I2C Bus 2/I2C_2_SDA*%
X20592000Y-49913814D03*
X41101000Y-54202000D03*
X26096000Y-54277000D03*
X17585500Y-53809000D03*
X50237500Y-54158000D03*
X20592000Y-46993814D03*
%TO.N,/I2C Bus 1/I2C_1_SDA*%
X23257500Y-31175000D03*
X46640000Y-2700000D03*
X4375000Y-22040000D03*
X13960000Y-22300000D03*
%TO.N,/I2C Bus 1/I2C_1_SCL*%
X23257500Y-31925000D03*
X5125000Y-22040000D03*
X14050000Y-21000000D03*
X47440401Y-2709599D03*
X13210000Y-22300000D03*
%TO.N,+3V3*%
X22808000Y-28800000D03*
X23607000Y-43335000D03*
X49400000Y-47030000D03*
X49400000Y-44380000D03*
X33733000Y-28750000D03*
X28932500Y-21540000D03*
X22052000Y-37010000D03*
%TO.N,GND*%
X8950000Y-26725000D03*
X8000000Y-26725000D03*
X8950000Y-25975000D03*
X29250500Y-6725500D03*
X20012000Y-12719000D03*
X26672400Y-35521000D03*
X26672400Y-31279000D03*
X30066000Y-32127400D03*
X8000000Y-25975000D03*
X25824000Y-32127400D03*
X25101000Y-58677000D03*
X62700000Y-46730000D03*
X30000500Y-6725500D03*
X27520800Y-35521000D03*
X20012000Y-11969000D03*
X30571500Y-43099500D03*
X18061000Y-57657000D03*
X63150000Y-30580000D03*
X29903750Y-35396250D03*
X37801000Y-58602000D03*
X37801000Y-60802000D03*
X34701000Y-45404000D03*
X54990000Y-26200000D03*
X20012000Y-2361500D03*
X50490000Y-6968000D03*
X25824000Y-32975800D03*
X30000500Y-8425500D03*
X44687000Y-52163000D03*
X46700000Y-41380000D03*
X14735000Y-27400000D03*
X20058000Y-34750000D03*
X19062000Y-2361500D03*
X52350000Y-44220000D03*
X53440000Y-17150000D03*
X28369200Y-35521000D03*
X20762000Y-11969000D03*
X13065000Y-42300000D03*
X20762000Y-2361500D03*
X29250500Y-8425500D03*
X54990000Y-17175000D03*
X13985000Y-28150000D03*
X13985000Y-27400000D03*
X29250500Y-9175500D03*
X17540000Y-33000000D03*
X7250000Y-26725000D03*
X20058000Y-30025000D03*
X31601000Y-52002000D03*
X32782500Y-28275000D03*
X5340000Y-41775000D03*
X30066000Y-33824200D03*
X9700000Y-26725000D03*
X21021000Y-56252000D03*
X13065000Y-46425000D03*
X53765000Y-18350000D03*
X29217600Y-35400000D03*
X29250500Y-7475500D03*
X25101000Y-60377000D03*
X25824000Y-33824200D03*
X43151000Y-62452000D03*
X25824000Y-31279000D03*
X28932500Y-19990000D03*
X30000500Y-9175500D03*
X43151000Y-56952000D03*
X25824000Y-35521000D03*
X9700000Y-25975000D03*
X46700000Y-34330000D03*
X46387000Y-52163000D03*
X30066000Y-31279000D03*
X35708000Y-31675000D03*
X35708000Y-29975000D03*
X17364238Y-37314238D03*
X26482500Y-23990000D03*
X20762000Y-12719000D03*
X27520800Y-31279000D03*
X12411000Y-53682000D03*
X18312000Y-2361500D03*
X28369200Y-31279000D03*
X14735000Y-28150000D03*
X29217600Y-31279000D03*
X48840000Y-11625000D03*
X30000500Y-7475500D03*
X35651000Y-46404000D03*
X33751000Y-46404000D03*
X25824000Y-34672600D03*
X48790000Y-6968000D03*
X29111500Y-43099500D03*
X7250000Y-25975000D03*
X29950000Y-34672600D03*
X27557000Y-43335000D03*
X30066000Y-32975800D03*
X35958000Y-34375000D03*
X50282500Y-51733000D03*
X46700000Y-44530000D03*
X53765000Y-25050000D03*
%TO.N,+1V1*%
X28482500Y-38260500D03*
X31232500Y-29312500D03*
%TD*%
D65*
%TO.N,Net-(J1-CC2)*%
X57140000Y-20000000D02*
X54990000Y-20000000D01*
%TO.N,Net-(J1-CC1)*%
X57140000Y-23000000D02*
X55390000Y-23000000D01*
X55390000Y-23000000D02*
X54990000Y-23400000D01*
D66*
%TO.N,VBUS*%
X56704224Y-19325000D02*
X57140000Y-19325000D01*
D65*
X59015000Y-14460000D02*
X58565000Y-14010000D01*
X58443646Y-19412000D02*
X59015000Y-18840646D01*
X59015000Y-18840646D02*
X59015000Y-14460000D01*
X57202000Y-19412000D02*
X58443646Y-19412000D01*
X57400000Y-15175000D02*
X58565000Y-14010000D01*
X57140000Y-19350000D02*
X57202000Y-19412000D01*
X51880000Y-15175000D02*
X57400000Y-15175000D01*
%TO.N,+BATT*%
X50400000Y-15175000D02*
X44985000Y-15175000D01*
X37760000Y-7950000D02*
X33500000Y-7950000D01*
X44985000Y-15175000D02*
X37760000Y-7950000D01*
%TO.N,Net-(AE1-A)*%
X39451000Y-59702000D02*
X41626000Y-59702000D01*
%TO.N,/USR_LED*%
X19883839Y-33575000D02*
X19069000Y-34389840D01*
X24445000Y-33575000D02*
X19883839Y-33575000D01*
X19069000Y-34389840D02*
X19069000Y-37380314D01*
X18065000Y-38667648D02*
X17777648Y-38955000D01*
X19069000Y-37380314D02*
X18065000Y-38384314D01*
X17777648Y-38955000D02*
X13170000Y-38955000D01*
X13170000Y-38955000D02*
X9125000Y-43000000D01*
X18065000Y-38384314D02*
X18065000Y-38667648D01*
%TO.N,/CARD_DET*%
X57750000Y-46280000D02*
X58550000Y-45480000D01*
X35198443Y-36812500D02*
X44665943Y-46280000D01*
X44665943Y-46280000D02*
X57750000Y-46280000D01*
X58550000Y-45480000D02*
X58550000Y-48480000D01*
X30482500Y-36812500D02*
X35198443Y-36812500D01*
%TO.N,/DAT0{slash}MISO*%
X32218966Y-35175000D02*
X31320000Y-35175000D01*
X43181000Y-41945896D02*
X36785104Y-35550000D01*
X32593966Y-35550000D02*
X32218966Y-35175000D01*
X48050000Y-42480000D02*
X45381000Y-42480000D01*
X36785104Y-35550000D02*
X32593966Y-35550000D01*
X43181000Y-42480000D02*
X43181000Y-41945896D01*
%TO.N,/DAT3{slash}CS*%
X48620000Y-33200000D02*
X48950000Y-33530000D01*
X32218618Y-33575000D02*
X32593618Y-33200000D01*
X32593618Y-33200000D02*
X48620000Y-33200000D01*
X48950000Y-36360000D02*
X48330000Y-36980000D01*
X48330000Y-36980000D02*
X48050000Y-36980000D01*
X31320000Y-33575000D02*
X32218618Y-33575000D01*
X48950000Y-33530000D02*
X48950000Y-36360000D01*
%TO.N,Net-(U5-C1)*%
X47532500Y-52890500D02*
X47787500Y-53145500D01*
X47532500Y-51733000D02*
X47532500Y-52890500D01*
D66*
%TO.N,/PSU/-IN*%
X20337200Y-6404999D02*
X20337200Y-5140800D01*
D65*
X16987000Y-6380000D02*
X16887000Y-6380000D01*
X16887000Y-6380000D02*
X15287000Y-7980000D01*
X21223000Y-4255000D02*
X22087000Y-4255000D01*
X18797100Y-6405000D02*
X17012000Y-6405000D01*
X22087000Y-4255000D02*
X36147000Y-4255000D01*
X20387000Y-5091000D02*
X21223000Y-4255000D01*
X17012000Y-6405000D02*
X16987000Y-6380000D01*
X36147000Y-4255000D02*
X44827000Y-12935000D01*
D66*
X20337200Y-5140800D02*
X20387000Y-5091000D01*
D65*
%TO.N,/SD_CLK*%
X31887594Y-35975000D02*
X32262595Y-36350000D01*
X35519418Y-36350000D02*
X35869418Y-36700000D01*
X32262595Y-36350000D02*
X35519418Y-36350000D01*
X31320000Y-35975000D02*
X31887594Y-35975000D01*
X43181000Y-40280000D02*
X48050000Y-40280000D01*
%TO.N,/PSU/+IN*%
X49140000Y-14675000D02*
X48840000Y-14375000D01*
X50490000Y-4218000D02*
X48790000Y-4218000D01*
X51880000Y-14675000D02*
X53165000Y-14675000D01*
X47400000Y-12935000D02*
X48840000Y-14375000D01*
X50490000Y-4218000D02*
X53440000Y-7168000D01*
X48790000Y-4218000D02*
X47340000Y-4218000D01*
X46603000Y-12935000D02*
X47400000Y-12935000D01*
X50400000Y-14675000D02*
X49140000Y-14675000D01*
X53440000Y-7168000D02*
X53440000Y-14400000D01*
X51880000Y-14675000D02*
X50400000Y-14675000D01*
X53165000Y-14675000D02*
X53440000Y-14400000D01*
%TO.N,/CMD{slash}MOSI*%
X32428280Y-35950000D02*
X32053280Y-35575000D01*
X36550000Y-36200000D02*
X36300000Y-35950000D01*
X40981000Y-38080000D02*
X48050000Y-38080000D01*
X32053280Y-35575000D02*
X31320000Y-35575000D01*
X36300000Y-35950000D02*
X32428280Y-35950000D01*
%TO.N,Net-(U8-IN+)*%
X44940000Y-7522000D02*
X44865000Y-7597000D01*
X44940000Y-5972000D02*
X44940000Y-7522000D01*
X45390000Y-4218000D02*
X45390000Y-5522000D01*
X45390000Y-5522000D02*
X44940000Y-5972000D01*
%TO.N,/DAT1*%
X32759652Y-35150000D02*
X36950790Y-35150000D01*
X32384652Y-34775000D02*
X32759652Y-35150000D01*
X45380790Y-43580000D02*
X48050000Y-43580000D01*
X31320000Y-34775000D02*
X32384652Y-34775000D01*
X36950790Y-35150000D02*
X45380790Y-43580000D01*
%TO.N,Net-(U8-IN-)*%
X46040000Y-5522000D02*
X46490000Y-5972000D01*
X46490000Y-5972000D02*
X46490000Y-7522000D01*
X46040000Y-4218000D02*
X46040000Y-5522000D01*
X46490000Y-7522000D02*
X46565000Y-7597000D01*
%TO.N,/DAT2*%
X32759304Y-33600000D02*
X35966475Y-33600000D01*
X31320000Y-33975000D02*
X32384304Y-33975000D01*
X35966475Y-33600000D02*
X38246475Y-35880000D01*
X32384304Y-33975000D02*
X32759304Y-33600000D01*
X38246475Y-35880000D02*
X48050000Y-35880000D01*
%TO.N,/SWDIO*%
X35701000Y-43879000D02*
X35701000Y-41949000D01*
%TO.N,/USR_BTN*%
X18465000Y-38550000D02*
X18465000Y-38875000D01*
X15215000Y-41025000D02*
X15215000Y-45175000D01*
X24445000Y-33975000D02*
X20049525Y-33975000D01*
X19469000Y-34555525D02*
X19469000Y-37546000D01*
X16315000Y-41025000D02*
X15215000Y-41025000D01*
X18465000Y-38875000D02*
X16315000Y-41025000D01*
X20049525Y-33975000D02*
X19469000Y-34555525D01*
X19469000Y-37546000D02*
X18465000Y-38550000D01*
%TO.N,/SWCLK*%
X33701000Y-41949000D02*
X33701000Y-43879000D01*
D66*
%TO.N,Net-(U7-LX2)*%
X22032000Y-7719000D02*
X22543000Y-8230000D01*
X21249699Y-7719000D02*
X22032000Y-7719000D01*
X20337200Y-7405000D02*
X20935699Y-7405000D01*
X20935699Y-7405000D02*
X21249699Y-7719000D01*
%TO.N,Net-(U7-LX1)*%
X21251699Y-6589000D02*
X22034000Y-6589000D01*
X22034000Y-6589000D02*
X22543000Y-6080000D01*
X20935699Y-6905000D02*
X21251699Y-6589000D01*
X20337200Y-6905000D02*
X20935699Y-6905000D01*
D65*
%TO.N,/I2C Bus 2/I2C_2_SCL*%
X15986000Y-53059500D02*
X22052000Y-46993500D01*
X24871000Y-53027000D02*
X26096000Y-53027000D01*
X39451000Y-53102000D02*
X41101000Y-53102000D01*
X24445000Y-37417000D02*
X22052000Y-39810000D01*
X22052000Y-46993500D02*
X22052000Y-39810000D01*
X49287500Y-53145500D02*
X50212500Y-53145500D01*
X15236000Y-53397000D02*
X15648500Y-53397000D01*
X15648500Y-53397000D02*
X15986000Y-53059500D01*
X24445000Y-35975000D02*
X24445000Y-37417000D01*
%TO.N,/I2C Bus 2/I2C_2_SDA*%
X24871000Y-54277000D02*
X26096000Y-54277000D01*
X20592000Y-46993814D02*
X20592000Y-39810000D01*
X17585500Y-53809000D02*
X17585500Y-52920314D01*
X19817000Y-37747352D02*
X19817000Y-39035000D01*
X39451000Y-54202000D02*
X41101000Y-54202000D01*
X24445000Y-35575000D02*
X21989352Y-35575000D01*
X24683500Y-54277000D02*
X24871000Y-54277000D01*
X49300000Y-54158000D02*
X50237500Y-54158000D01*
X17487500Y-53907000D02*
X17585500Y-53809000D01*
X21989352Y-35575000D02*
X19817000Y-37747352D01*
X19817000Y-39035000D02*
X20592000Y-39810000D01*
X16498000Y-53907000D02*
X17487500Y-53907000D01*
X17585500Y-52920314D02*
X20592000Y-49913814D01*
%TO.N,/QSPI_SS*%
X18470000Y-24067500D02*
X19947500Y-22590000D01*
X19947500Y-22590000D02*
X18497500Y-22590000D01*
X25282500Y-29567122D02*
X24932500Y-29217121D01*
X18497500Y-22590000D02*
X18347500Y-22440000D01*
X25282500Y-29937500D02*
X25282500Y-29567122D01*
X24932500Y-29217121D02*
X24932500Y-27750000D01*
X24932500Y-27750000D02*
X19180000Y-27750000D01*
X19180000Y-27750000D02*
X18470000Y-27040000D01*
X18470000Y-27040000D02*
X18470000Y-24067500D01*
%TO.N,/PSU/TPS_FB*%
X17702000Y-9580000D02*
X16987000Y-9580000D01*
D66*
X18737000Y-9119000D02*
X18687000Y-9169000D01*
X18737000Y-7905001D02*
X18737000Y-9119000D01*
D65*
X18113000Y-9169000D02*
X17702000Y-9580000D01*
X18687000Y-9169000D02*
X18113000Y-9169000D01*
%TO.N,/I2C Bus 1/I2C_1_SDA*%
X13985000Y-22325000D02*
X13960000Y-22300000D01*
X13985000Y-23300000D02*
X13985000Y-22325000D01*
X3150000Y-21845000D02*
X4180000Y-21845000D01*
X46640000Y-2700000D02*
X46690000Y-2650000D01*
X4500000Y-23085000D02*
X4500000Y-22165000D01*
X23257500Y-31175000D02*
X24445000Y-31175000D01*
X4180000Y-21845000D02*
X4375000Y-22040000D01*
X4500000Y-22165000D02*
X4375000Y-22040000D01*
X46690000Y-2650000D02*
X46690000Y-1618000D01*
%TO.N,/I2C Bus 1/I2C_1_SCL*%
X23257500Y-31925000D02*
X23561140Y-31925000D01*
X47440401Y-2709599D02*
X47340000Y-2609198D01*
X13185000Y-23300000D02*
X13185000Y-22325000D01*
X13210000Y-21840000D02*
X13210000Y-22300000D01*
X23561140Y-31925000D02*
X23911140Y-31575000D01*
X5000000Y-22165000D02*
X5125000Y-22040000D01*
X6350000Y-21845000D02*
X5320000Y-21845000D01*
X5320000Y-21845000D02*
X5125000Y-22040000D01*
X23911140Y-31575000D02*
X24445000Y-31575000D01*
X14050000Y-21000000D02*
X13210000Y-21840000D01*
X13185000Y-22325000D02*
X13210000Y-22300000D01*
X47340000Y-2609198D02*
X47340000Y-1618000D01*
X5000000Y-23085000D02*
X5000000Y-22165000D01*
%TO.N,/QSPI_SD3*%
X26932500Y-28388696D02*
X27282500Y-28738697D01*
X26932500Y-25445000D02*
X26932500Y-28388696D01*
X25347500Y-23860000D02*
X26932500Y-25445000D01*
X27282500Y-28738697D02*
X27282500Y-29937500D01*
%TO.N,/QSPI_SD1*%
X25332500Y-27516372D02*
X25166128Y-27350000D01*
X19352308Y-27350000D02*
X18870000Y-26867692D01*
X18870000Y-26867692D02*
X18870000Y-24937500D01*
X25166128Y-27350000D02*
X19352308Y-27350000D01*
X25682500Y-29401437D02*
X25332500Y-29051436D01*
X25332500Y-29051436D02*
X25332500Y-27516372D01*
X18870000Y-24937500D02*
X19947500Y-23860000D01*
X25682500Y-29937500D02*
X25682500Y-29401437D01*
%TO.N,/QSPI_SCLK*%
X26532500Y-26315000D02*
X25347500Y-25130000D01*
X26882500Y-28904382D02*
X26532500Y-28554381D01*
X26532500Y-28554381D02*
X26532500Y-26315000D01*
X26882500Y-29937500D02*
X26882500Y-28904382D01*
%TO.N,/QSPI_SD0*%
X26132500Y-27185000D02*
X25347500Y-26400000D01*
X26132500Y-28720066D02*
X26132500Y-27185000D01*
X26482500Y-29070067D02*
X26132500Y-28720066D01*
X26482500Y-29937500D02*
X26482500Y-29070067D01*
%TO.N,/QSPI_SD2*%
X25331814Y-26950000D02*
X19517994Y-26950000D01*
X26082500Y-29235752D02*
X25732500Y-28885751D01*
X25732500Y-27350686D02*
X25331814Y-26950000D01*
X25732500Y-28885751D02*
X25732500Y-27350686D01*
X19517994Y-26950000D02*
X19272500Y-26704506D01*
X19272500Y-25805000D02*
X19947500Y-25130000D01*
X26082500Y-29937500D02*
X26082500Y-29235752D01*
X19272500Y-26704506D02*
X19272500Y-25805000D01*
%TO.N,/XIN*%
X27282500Y-36812500D02*
X27282500Y-38504500D01*
X27282500Y-38504500D02*
X26682000Y-39105000D01*
%TO.N,+3V3*%
X5870000Y-49830000D02*
X5895000Y-49830000D01*
X6880000Y-24570000D02*
X6880000Y-24030000D01*
X24445000Y-34375000D02*
X24978860Y-34375000D01*
X49400000Y-44380000D02*
X49400000Y-39730000D01*
X18687000Y-10819000D02*
X18783000Y-10819000D01*
X25182500Y-34171360D02*
X25182500Y-30932500D01*
X27850000Y-37578860D02*
X28082500Y-37346360D01*
X14811000Y-53907000D02*
X15811000Y-54907000D01*
X3583114Y-23250000D02*
X3835000Y-23250000D01*
X18836000Y-57665475D02*
X18836000Y-55687000D01*
X13240000Y-33900000D02*
X13240000Y-33400000D01*
X30582500Y-35817500D02*
X30325000Y-36075000D01*
X10254000Y-29786000D02*
X9940000Y-30100000D01*
X28526000Y-59702000D02*
X27851000Y-60377000D01*
X30325000Y-36075000D02*
X28286140Y-36075000D01*
X28482500Y-29937500D02*
X28082500Y-29937500D01*
X30520000Y-29975000D02*
X30482500Y-29937500D01*
X20592000Y-38160000D02*
X22052000Y-38160000D01*
X43713000Y-54913000D02*
X42250000Y-53450000D01*
X29111500Y-39961500D02*
X27850000Y-38700000D01*
X49287500Y-55133000D02*
X49287500Y-54670500D01*
X27076000Y-61152000D02*
X27851000Y-60377000D01*
X44400000Y-50350000D02*
X47720000Y-47030000D01*
X3150000Y-20195000D02*
X2375000Y-20970000D01*
X27926000Y-58602000D02*
X27851000Y-58677000D01*
X18836000Y-55687000D02*
X21021000Y-53502000D01*
X23607000Y-43335000D02*
X24807000Y-43335000D01*
X2375000Y-20970000D02*
X2375000Y-22613114D01*
X9940000Y-35800000D02*
X9940000Y-30100000D01*
X42250000Y-50350000D02*
X44400000Y-50350000D01*
X28082500Y-36278640D02*
X28082500Y-36812500D01*
X24482000Y-43010000D02*
X24807000Y-43335000D01*
X32958000Y-29975000D02*
X30520000Y-29975000D01*
X13974000Y-55907000D02*
X12936000Y-55907000D01*
X4700000Y-23850000D02*
X5250000Y-23850000D01*
X5250000Y-23850000D02*
X5500000Y-23600000D01*
X49262500Y-55158000D02*
X49287500Y-55133000D01*
X23362000Y-11130000D02*
X29486500Y-17254500D01*
X6880000Y-24030000D02*
X7685000Y-23225000D01*
X4500000Y-24050000D02*
X4700000Y-23850000D01*
X32058000Y-30775000D02*
X31320000Y-30775000D01*
X3815000Y-41925000D02*
X9940000Y-35800000D01*
X31320000Y-34375000D02*
X33208000Y-34375000D01*
X18836000Y-57665475D02*
X26839475Y-57665475D01*
X22483000Y-28800000D02*
X22033000Y-29250000D01*
X21021000Y-53502000D02*
X24173000Y-50350000D01*
X22721000Y-53027000D02*
X22721000Y-54277000D01*
X44687000Y-54913000D02*
X46387000Y-54913000D01*
X6165000Y-24750000D02*
X6700000Y-24750000D01*
X46632000Y-55158000D02*
X49262500Y-55158000D01*
X6350000Y-20195000D02*
X15765000Y-20195000D01*
X20114315Y-29250000D02*
X22033000Y-29250000D01*
X18290475Y-58211000D02*
X18836000Y-57665475D01*
X22895000Y-30025000D02*
X22808000Y-30025000D01*
X18836000Y-55687000D02*
X18061000Y-54912000D01*
X26839475Y-57665475D02*
X27851000Y-58677000D01*
X23362000Y-12598000D02*
X23362000Y-11130000D01*
X30582500Y-34578640D02*
X30582500Y-35817500D01*
X23362000Y-11130000D02*
X22337000Y-10105000D01*
X27850000Y-38700000D02*
X27850000Y-37578860D01*
X20387000Y-9219000D02*
X21273000Y-10105000D01*
X18290475Y-58211000D02*
X21231475Y-61152000D01*
X4500000Y-24915000D02*
X4500000Y-26435000D01*
X5500000Y-23600000D02*
X5500000Y-23085000D01*
X15811000Y-54907000D02*
X16498000Y-54907000D01*
X9940000Y-30100000D02*
X12810000Y-27230000D01*
X18783000Y-10819000D02*
X20383000Y-9219000D01*
X28286140Y-36075000D02*
X28082500Y-36278640D01*
X18061000Y-54912000D02*
X18061000Y-54907000D01*
X2375000Y-22613114D02*
X3297500Y-23535614D01*
X29951000Y-58602000D02*
X27926000Y-58602000D01*
X26657500Y-22590000D02*
X25347500Y-22590000D01*
X21273000Y-10105000D02*
X22337000Y-10105000D01*
X7557500Y-21402500D02*
X6350000Y-20195000D01*
X16410000Y-20840000D02*
X16410000Y-25545685D01*
X14190000Y-58211000D02*
X18290475Y-58211000D01*
X21496000Y-53027000D02*
X21021000Y-53502000D01*
X27707500Y-21540000D02*
X26657500Y-22590000D01*
X47720000Y-47030000D02*
X49400000Y-47030000D01*
X13240000Y-33400000D02*
X9940000Y-30100000D01*
X3297500Y-25232500D02*
X4500000Y-26435000D01*
X10254000Y-24094000D02*
X10254000Y-29786000D01*
X27707500Y-23190000D02*
X27707500Y-21540000D01*
X32958000Y-31675000D02*
X32958000Y-29975000D01*
X24445000Y-30775000D02*
X23645000Y-30775000D01*
X15765000Y-20195000D02*
X23362000Y-12598000D01*
X13185000Y-25800000D02*
X12810000Y-26175000D01*
X30482500Y-29937500D02*
X30082500Y-29937500D01*
X4500000Y-24915000D02*
X4500000Y-24050000D01*
X9385000Y-23225000D02*
X10254000Y-24094000D01*
X5870000Y-49830000D02*
X3815000Y-47775000D01*
X6350000Y-20195000D02*
X3150000Y-20195000D01*
X12411000Y-56346000D02*
X12411000Y-56432000D01*
X25182500Y-30932500D02*
X25025000Y-30775000D01*
X29486500Y-17254500D02*
X29486500Y-20986000D01*
X12936000Y-55907000D02*
X12411000Y-56432000D01*
X48850000Y-39180000D02*
X48050000Y-39180000D01*
X33733000Y-28750000D02*
X33733000Y-29200000D01*
X24482000Y-41005000D02*
X24482000Y-43010000D01*
X22808000Y-28800000D02*
X22483000Y-28800000D01*
X20383000Y-9219000D02*
X20387000Y-9219000D01*
X29951000Y-58602000D02*
X29951000Y-59702000D01*
X25025000Y-30775000D02*
X24445000Y-30775000D01*
X24445000Y-34375000D02*
X23183000Y-34375000D01*
X33733000Y-29200000D02*
X32958000Y-29975000D01*
X24978860Y-34375000D02*
X25182500Y-34171360D01*
X29951000Y-59702000D02*
X28526000Y-59702000D01*
X7685000Y-21530000D02*
X7557500Y-21402500D01*
X22033000Y-29250000D02*
X22808000Y-30025000D01*
X29111500Y-40349500D02*
X29111500Y-39961500D01*
X31320000Y-34375000D02*
X30786140Y-34375000D01*
X12810000Y-27230000D02*
X12810000Y-26175000D01*
X23645000Y-30775000D02*
X22895000Y-30025000D01*
X24482000Y-39105000D02*
X25477000Y-40100000D01*
X44687000Y-54913000D02*
X43713000Y-54913000D01*
X47142000Y-54158000D02*
X47775000Y-54158000D01*
X7685000Y-23225000D02*
X9385000Y-23225000D01*
X32958000Y-31675000D02*
X32058000Y-30775000D01*
X16498000Y-54907000D02*
X18061000Y-54907000D01*
X3297500Y-23535614D02*
X3583114Y-23250000D01*
X16410000Y-25545685D02*
X20114315Y-29250000D01*
X23183000Y-34375000D02*
X22808000Y-34750000D01*
X49400000Y-39730000D02*
X48850000Y-39180000D01*
X28482500Y-23965000D02*
X28482500Y-29937500D01*
X21231475Y-61152000D02*
X27076000Y-61152000D01*
X13974000Y-53907000D02*
X14811000Y-53907000D01*
X28082500Y-37346360D02*
X28082500Y-36812500D01*
X47775000Y-54158000D02*
X47775000Y-53658000D01*
X28862000Y-40100000D02*
X29111500Y-40349500D01*
X46387000Y-54913000D02*
X46632000Y-55158000D01*
X3297500Y-25232500D02*
X3297500Y-23535614D01*
X3815000Y-47775000D02*
X3815000Y-41925000D01*
X13185000Y-24700000D02*
X13185000Y-25800000D01*
X7685000Y-23225000D02*
X7685000Y-21530000D01*
X22721000Y-53027000D02*
X21496000Y-53027000D01*
X25477000Y-40100000D02*
X28862000Y-40100000D01*
X29486500Y-20986000D02*
X28932500Y-21540000D01*
X24173000Y-50350000D02*
X42250000Y-50350000D01*
X42250000Y-53450000D02*
X42250000Y-50350000D01*
X5895000Y-49830000D02*
X12411000Y-56346000D01*
D66*
X20337200Y-7905001D02*
X20337200Y-9169200D01*
D65*
X22052000Y-37010000D02*
X22052000Y-38160000D01*
X7557500Y-21402500D02*
X9380000Y-23225000D01*
X28932500Y-21540000D02*
X27707500Y-21540000D01*
X46387000Y-54913000D02*
X47142000Y-54158000D01*
X12411000Y-56432000D02*
X14190000Y-58211000D01*
X27707500Y-23190000D02*
X28482500Y-23965000D01*
D66*
X20337200Y-9169200D02*
X20387000Y-9219000D01*
D65*
X9380000Y-23225000D02*
X9385000Y-23225000D01*
X24482000Y-41005000D02*
X24482000Y-39105000D01*
X6700000Y-24750000D02*
X6880000Y-24570000D01*
X30786140Y-34375000D02*
X30582500Y-34578640D01*
X15765000Y-20195000D02*
X16410000Y-20840000D01*
%TO.N,Net-(BZ1--)*%
X13240000Y-36600000D02*
X9940000Y-39900000D01*
X13240000Y-36100000D02*
X13240000Y-36600000D01*
X13240000Y-36100000D02*
X14440000Y-36100000D01*
X14440000Y-36100000D02*
X15540000Y-35000000D01*
%TO.N,Net-(Q1-G)*%
X7770000Y-43295000D02*
X7475000Y-43000000D01*
X7770000Y-45080000D02*
X7770000Y-43295000D01*
X6165000Y-43000000D02*
X7475000Y-43000000D01*
%TO.N,GND*%
X13985000Y-24700000D02*
X13985000Y-25800000D01*
X27520800Y-35521000D02*
X27520800Y-33736700D01*
X55090000Y-24950000D02*
X54990000Y-25050000D01*
X20058000Y-30025000D02*
X21258000Y-30025000D01*
X27707500Y-26390000D02*
X27707500Y-24740000D01*
X48287500Y-53145500D02*
X48287500Y-52528000D01*
X19947500Y-26400000D02*
X20742500Y-26400000D01*
X13065000Y-46425000D02*
X13065000Y-45150000D01*
X28369200Y-31279000D02*
X28369200Y-32888300D01*
D10*
X18312000Y-2361500D02*
X18278000Y-2361500D01*
D65*
X52350000Y-44220000D02*
X52350000Y-45480000D01*
X25824000Y-35433500D02*
X27882500Y-33375000D01*
X54990000Y-17175000D02*
X54990000Y-18350000D01*
X54990000Y-26200000D02*
X54990000Y-25050000D01*
X46387000Y-52163000D02*
X46387000Y-53363000D01*
X26672400Y-34585100D02*
X27882500Y-33375000D01*
D10*
X21105500Y-2705000D02*
X20762000Y-2361500D01*
D65*
X15935500Y-56907000D02*
X14611500Y-55583000D01*
X48287500Y-53145500D02*
X48787500Y-53145500D01*
X26682000Y-41005000D02*
X26682000Y-43010000D01*
X28369200Y-32888300D02*
X27882500Y-33375000D01*
D10*
X16057000Y-8860000D02*
X16987000Y-7930000D01*
D65*
X28281700Y-32975800D02*
X27882500Y-33375000D01*
X30066000Y-33824200D02*
X28331700Y-33824200D01*
X63150000Y-30580000D02*
X63150000Y-31980000D01*
X29978500Y-31279000D02*
X27882500Y-33375000D01*
D10*
X20387000Y-3541000D02*
X20387000Y-2736500D01*
X22301000Y-11969000D02*
X22337000Y-12005000D01*
D65*
X17540000Y-33000000D02*
X17540000Y-34050000D01*
X27520800Y-33736700D02*
X27882500Y-33375000D01*
X46700000Y-44530000D02*
X48050000Y-44530000D01*
X35708000Y-31675000D02*
X34508000Y-31675000D01*
X50190000Y-14175000D02*
X48840000Y-12825000D01*
X29111500Y-43099500D02*
X29111500Y-41899500D01*
X50490000Y-6968000D02*
X50490000Y-5768000D01*
X47540000Y-5768000D02*
X46690000Y-4918000D01*
D10*
X22087000Y-2705000D02*
X21105500Y-2705000D01*
D65*
X49082500Y-51733000D02*
X50282500Y-51733000D01*
X57140000Y-24950000D02*
X55090000Y-24950000D01*
D10*
X17970562Y-11969000D02*
X20012000Y-11969000D01*
D65*
X20597500Y-18690000D02*
X24722500Y-18690000D01*
X26957500Y-23990000D02*
X27707500Y-24740000D01*
X30066000Y-31279000D02*
X29978500Y-31279000D01*
X29111500Y-41899500D02*
X30571500Y-41899500D01*
X35708000Y-29975000D02*
X34508000Y-29975000D01*
X56940000Y-18350000D02*
X57140000Y-18550000D01*
X46700000Y-34330000D02*
X48050000Y-34330000D01*
X30571500Y-43099500D02*
X30571500Y-41899500D01*
X25824000Y-31316500D02*
X27882500Y-33375000D01*
D66*
X18137000Y-7405000D02*
X17612000Y-7930000D01*
D65*
X25824000Y-35521000D02*
X25824000Y-35433500D01*
X29180100Y-34672600D02*
X27882500Y-33375000D01*
X48790000Y-5768000D02*
X47540000Y-5768000D01*
X5000000Y-24380000D02*
X5130000Y-24250000D01*
X31601000Y-52002000D02*
X29951000Y-52002000D01*
X46690000Y-3518000D02*
X46690000Y-4218000D01*
D10*
X6960000Y-26435000D02*
X7250000Y-26725000D01*
D65*
X28369200Y-33861700D02*
X27882500Y-33375000D01*
X53440000Y-17150000D02*
X53440000Y-15950000D01*
X13065000Y-42300000D02*
X13065000Y-41025000D01*
X22721000Y-55527000D02*
X22721000Y-56777000D01*
X29130100Y-32127400D02*
X27882500Y-33375000D01*
D10*
X6050000Y-26435000D02*
X6790000Y-26435000D01*
D65*
X62700000Y-46730000D02*
X62700000Y-45480000D01*
D10*
X17970562Y-11969000D02*
X16057000Y-10055438D01*
X7685000Y-25540000D02*
X7250000Y-25975000D01*
D65*
X26301000Y-58677000D02*
X26301000Y-60377000D01*
X37801000Y-60802000D02*
X39451000Y-60802000D01*
X17364238Y-37314238D02*
X17365000Y-37315000D01*
X20742500Y-26400000D02*
X22647500Y-24495000D01*
X34420000Y-34375000D02*
X34520000Y-34275000D01*
X48787500Y-53608000D02*
X48837500Y-53658000D01*
D10*
X14360000Y-27025000D02*
X14360000Y-26175000D01*
D65*
X29217600Y-34710100D02*
X27882500Y-33375000D01*
D10*
X7685000Y-24775000D02*
X7685000Y-25540000D01*
D65*
X53165000Y-15675000D02*
X53440000Y-15950000D01*
X35958000Y-34375000D02*
X34758000Y-34375000D01*
D10*
X19062000Y-2361500D02*
X20012000Y-2361500D01*
D65*
X27520800Y-31279000D02*
X27520800Y-33013300D01*
X26682000Y-43010000D02*
X26357000Y-43335000D01*
X26407500Y-18690000D02*
X27707500Y-19990000D01*
D10*
X20387000Y-11594000D02*
X20012000Y-11969000D01*
D65*
X54990000Y-17175000D02*
X54990000Y-16150000D01*
X44687000Y-52163000D02*
X44687000Y-53363000D01*
X46562000Y-3390000D02*
X46690000Y-3518000D01*
D10*
X9385000Y-24775000D02*
X9385000Y-25540000D01*
D65*
X17365000Y-37315000D02*
X17365000Y-38180000D01*
D10*
X20012000Y-11969000D02*
X20287000Y-12244000D01*
X18687000Y-3491000D02*
X18687000Y-2736500D01*
D65*
X48287500Y-52528000D02*
X49082500Y-51733000D01*
D10*
X16987000Y-4730000D02*
X16987000Y-3652500D01*
D65*
X22647500Y-24310494D02*
X26967994Y-19990000D01*
D10*
X9385000Y-25660000D02*
X9700000Y-25975000D01*
D65*
X50400000Y-14175000D02*
X50190000Y-14175000D01*
X29217600Y-35400000D02*
X29217600Y-34710100D01*
X14611500Y-55583000D02*
X14611500Y-54482000D01*
X33751000Y-46404000D02*
X32401000Y-46404000D01*
X28369200Y-35521000D02*
X28369200Y-33861700D01*
X30066000Y-32975800D02*
X28281700Y-32975800D01*
X16498000Y-56907000D02*
X17611000Y-56907000D01*
D10*
X13985000Y-27400000D02*
X14360000Y-27025000D01*
D65*
X27557000Y-43335000D02*
X26357000Y-43335000D01*
X48787500Y-54670500D02*
X48787500Y-53608000D01*
X54990000Y-16150000D02*
X55140000Y-16000000D01*
X46387000Y-53363000D02*
X44687000Y-53363000D01*
D10*
X16057000Y-10055438D02*
X16057000Y-8860000D01*
D65*
X26634900Y-32127400D02*
X27882500Y-33375000D01*
X13985000Y-25800000D02*
X14360000Y-26175000D01*
X28331700Y-33824200D02*
X27882500Y-33375000D01*
X16498000Y-56907000D02*
X15935500Y-56907000D01*
X46040000Y-3390000D02*
X46562000Y-3390000D01*
X29950000Y-34672600D02*
X29180100Y-34672600D01*
X48790000Y-6968000D02*
X48790000Y-5768000D01*
X24722500Y-18690000D02*
X26407500Y-18690000D01*
D10*
X9385000Y-24775000D02*
X9385000Y-25660000D01*
D65*
X29903750Y-35396250D02*
X27882500Y-33375000D01*
D10*
X20387000Y-10769000D02*
X20387000Y-11594000D01*
D65*
X29217600Y-31279000D02*
X29217600Y-32039900D01*
X46700000Y-41380000D02*
X48050000Y-41380000D01*
X51880000Y-15675000D02*
X50400000Y-15675000D01*
X5340000Y-41775000D02*
X5340000Y-42175000D01*
X4515000Y-43000000D02*
X4515000Y-43725000D01*
X51880000Y-15675000D02*
X53165000Y-15675000D01*
X21021000Y-56252000D02*
X21021000Y-55052000D01*
X21258000Y-34750000D02*
X20058000Y-34750000D01*
X35651000Y-46404000D02*
X37001000Y-46404000D01*
X48840000Y-11625000D02*
X48840000Y-12825000D01*
X53765000Y-18350000D02*
X54990000Y-18350000D01*
X29217600Y-32039900D02*
X27882500Y-33375000D01*
X18061000Y-57657000D02*
X18061000Y-56457000D01*
X26967994Y-19990000D02*
X27707500Y-19990000D01*
X37801000Y-58602000D02*
X39451000Y-58602000D01*
X5000000Y-24915000D02*
X5000000Y-24380000D01*
X25824000Y-31279000D02*
X25824000Y-31316500D01*
X12411000Y-54882000D02*
X12936000Y-55407000D01*
X48787500Y-53145500D02*
X48787500Y-53608000D01*
X26482500Y-23990000D02*
X26957500Y-23990000D01*
D10*
X19062000Y-2361500D02*
X18312000Y-2361500D01*
D65*
X46690000Y-4918000D02*
X46690000Y-4218000D01*
D10*
X20528000Y-3400000D02*
X20387000Y-3541000D01*
D65*
X12936000Y-55407000D02*
X13974000Y-55407000D01*
D66*
X18737000Y-7405000D02*
X18137000Y-7405000D01*
D65*
X27483300Y-32975800D02*
X27882500Y-33375000D01*
X14536500Y-54407000D02*
X14611500Y-54482000D01*
X22721000Y-55527000D02*
X21496000Y-55527000D01*
X5340000Y-42175000D02*
X4515000Y-43000000D01*
D10*
X6050000Y-26435000D02*
X6960000Y-26435000D01*
X14735000Y-27400000D02*
X14360000Y-27025000D01*
D65*
X26584900Y-34672600D02*
X27882500Y-33375000D01*
X26882500Y-36812500D02*
X26882500Y-35731100D01*
X25824000Y-32975800D02*
X27483300Y-32975800D01*
D10*
X20387000Y-2736500D02*
X20012000Y-2361500D01*
D65*
X26882500Y-35731100D02*
X26672400Y-35521000D01*
X28932500Y-19990000D02*
X27707500Y-19990000D01*
X54990000Y-18350000D02*
X56940000Y-18350000D01*
X43151000Y-56952000D02*
X43151000Y-58227000D01*
X34508000Y-31675000D02*
X34508000Y-29975000D01*
X25824000Y-34672600D02*
X26584900Y-34672600D01*
D10*
X20387000Y-2736500D02*
X20762000Y-2361500D01*
D65*
X21496000Y-55527000D02*
X21021000Y-55052000D01*
D10*
X7685000Y-25660000D02*
X8000000Y-25975000D01*
D65*
X43151000Y-62452000D02*
X43151000Y-61177000D01*
X22721000Y-56777000D02*
X24871000Y-56777000D01*
X25101000Y-60377000D02*
X26301000Y-60377000D01*
X25101000Y-58677000D02*
X26301000Y-58677000D01*
X27520800Y-33013300D02*
X27882500Y-33375000D01*
X32782500Y-28275000D02*
X31582500Y-28275000D01*
X5130000Y-24250000D02*
X6165000Y-24250000D01*
X50490000Y-5768000D02*
X48790000Y-5768000D01*
X13974000Y-54407000D02*
X14536500Y-54407000D01*
X26672400Y-35521000D02*
X26672400Y-34585100D01*
X4515000Y-43725000D02*
X5870000Y-45080000D01*
D10*
X7685000Y-24775000D02*
X7685000Y-25660000D01*
D65*
X22647500Y-24495000D02*
X22647500Y-24310494D01*
X18737000Y-3541000D02*
X18687000Y-3491000D01*
D10*
X18687000Y-2736500D02*
X19062000Y-2361500D01*
D65*
X34701000Y-45404000D02*
X34701000Y-43879000D01*
X12411000Y-53682000D02*
X12411000Y-54882000D01*
X53765000Y-25050000D02*
X54990000Y-25050000D01*
X25824000Y-33824200D02*
X27433300Y-33824200D01*
D10*
X20012000Y-2361500D02*
X20762000Y-2361500D01*
D65*
X17540000Y-34050000D02*
X17590000Y-34050000D01*
X14611500Y-54482000D02*
X14611500Y-55332000D01*
D66*
X17612000Y-7930000D02*
X16987000Y-7930000D01*
D65*
X30066000Y-32127400D02*
X29130100Y-32127400D01*
D10*
X18687000Y-2736500D02*
X18312000Y-2361500D01*
X20762000Y-11969000D02*
X22301000Y-11969000D01*
D65*
X48837500Y-53658000D02*
X49300000Y-53658000D01*
X14536500Y-55407000D02*
X13974000Y-55407000D01*
D10*
X6790000Y-26435000D02*
X7250000Y-25975000D01*
X18278000Y-2361500D02*
X16987000Y-3652500D01*
D65*
X26672400Y-32164900D02*
X27882500Y-33375000D01*
D10*
X20387000Y-11594000D02*
X20762000Y-11969000D01*
D65*
X27433300Y-33824200D02*
X27882500Y-33375000D01*
X25824000Y-32127400D02*
X26634900Y-32127400D01*
X14611500Y-55332000D02*
X14536500Y-55407000D01*
X26672400Y-31279000D02*
X26672400Y-32164900D01*
X46040000Y-1618000D02*
X46040000Y-3390000D01*
D10*
X9385000Y-25540000D02*
X8950000Y-25975000D01*
D65*
X17611000Y-56907000D02*
X18061000Y-56457000D01*
%TO.N,/BUZZER_CTL*%
X19598475Y-33175000D02*
X19194000Y-32770525D01*
X18243475Y-31820000D02*
X17365000Y-31820000D01*
X19194000Y-32770525D02*
X18243475Y-31820000D01*
X24445000Y-33175000D02*
X19598475Y-33175000D01*
%TO.N,/CPU_USB_D+*%
X29982500Y-24875000D02*
X28882500Y-25975000D01*
X28882500Y-25975000D02*
X28882500Y-29937500D01*
%TO.N,/CPU_USB_D-*%
X29282500Y-27275000D02*
X29282500Y-29937500D01*
X29982500Y-26575000D02*
X29282500Y-27275000D01*
D67*
%TO.N,/USB_D-*%
X57140000Y-21500000D02*
X56461880Y-21500000D01*
X56461880Y-21500000D02*
X56360940Y-21600940D01*
X56360940Y-21600940D02*
X55708761Y-22253120D01*
X35954380Y-22253120D02*
X31632500Y-26575000D01*
X56215000Y-21746880D02*
X56215000Y-22253120D01*
X55708761Y-22253120D02*
X35954380Y-22253120D01*
X56461880Y-22500000D02*
X57140000Y-22500000D01*
X56461880Y-21500000D02*
X56215000Y-21746880D01*
X56215000Y-22253120D02*
X56461880Y-22500000D01*
X56215000Y-22253120D02*
X55961880Y-22000000D01*
X55961880Y-22000000D02*
X55708761Y-22253120D01*
%TO.N,/USB_D+*%
X58065000Y-21753120D02*
X57818120Y-22000000D01*
X35747274Y-21753120D02*
X32625394Y-24875000D01*
X57818120Y-21000000D02*
X58065000Y-21246880D01*
X58065000Y-21246880D02*
X58065000Y-21753120D01*
X57818120Y-22000000D02*
X57140000Y-22000000D01*
X32625394Y-24875000D02*
X31632500Y-24875000D01*
X55501654Y-21753120D02*
X35747274Y-21753120D01*
X57140000Y-21000000D02*
X57818120Y-21000000D01*
X56254774Y-21000000D02*
X55501654Y-21753120D01*
X57140000Y-21000000D02*
X56254774Y-21000000D01*
D65*
%TO.N,/BOOTSEL*%
X18347500Y-20790000D02*
X20522500Y-20790000D01*
X20572500Y-20840000D02*
X24722500Y-20840000D01*
X18347500Y-20790000D02*
X18347500Y-19140000D01*
X20522500Y-20790000D02*
X20572500Y-20840000D01*
%TO.N,Net-(U7-MODE)*%
X16187000Y-5430000D02*
X17474648Y-5430000D01*
D66*
X19445000Y-6905000D02*
X19600000Y-6750000D01*
D65*
X15287000Y-6330000D02*
X16187000Y-5430000D01*
X17474648Y-5430000D02*
X17762000Y-5142648D01*
X17762000Y-5142648D02*
X17762000Y-5141000D01*
D66*
X18737000Y-6905000D02*
X19445000Y-6905000D01*
X19600000Y-6054000D02*
X18687000Y-5141000D01*
X19600000Y-6750000D02*
X19600000Y-6054000D01*
D65*
X17762000Y-5141000D02*
X18687000Y-5141000D01*
%TO.N,+1V1*%
X30571500Y-40349500D02*
X28482500Y-38260500D01*
X29682500Y-28625000D02*
X29682500Y-29937500D01*
X27707500Y-27940000D02*
X27682500Y-27965000D01*
X27682500Y-30471360D02*
X27682500Y-29937500D01*
X28482500Y-38260500D02*
X28482500Y-36812500D01*
X31070000Y-29312500D02*
X30032500Y-28275000D01*
X29682500Y-29937500D02*
X29682500Y-30471360D01*
X29478860Y-30675000D02*
X27886140Y-30675000D01*
X29682500Y-30471360D02*
X29478860Y-30675000D01*
X27682500Y-27965000D02*
X27682500Y-29937500D01*
X31232500Y-29312500D02*
X31070000Y-29312500D01*
X30032500Y-28275000D02*
X29682500Y-28625000D01*
X27886140Y-30675000D02*
X27682500Y-30471360D01*
%TO.N,/RUN*%
X29682500Y-36812500D02*
X29682500Y-37382500D01*
X29682500Y-37382500D02*
X31099500Y-38799500D01*
X35775500Y-38799500D02*
X38101000Y-41125000D01*
X31099500Y-38799500D02*
X35775500Y-38799500D01*
%TO.N,/PSU/-SNS*%
X44865000Y-9247000D02*
X44865000Y-10990000D01*
X44865000Y-10990000D02*
X44827000Y-11028000D01*
%TO.N,/PSU/+SNS*%
X46565000Y-10990000D02*
X46603000Y-11028000D01*
X46565000Y-9247000D02*
X46565000Y-10990000D01*
%TO.N,Net-(LED1-K)*%
X56865000Y-14010000D02*
X55480000Y-14010000D01*
X55480000Y-14010000D02*
X55140000Y-14350000D01*
%TO.N,Net-(LED2-K)*%
X7470000Y-49830000D02*
X9525000Y-47775000D01*
X9525000Y-47775000D02*
X10000000Y-47775000D01*
%TO.N,Net-(Q1-D)*%
X9045000Y-47080000D02*
X10000000Y-46125000D01*
X6820000Y-47080000D02*
X9045000Y-47080000D01*
%TO.N,Net-(Q2-G)*%
X17540000Y-35950000D02*
X16750000Y-35950000D01*
X17540000Y-35390000D02*
X17540000Y-35950000D01*
X15715000Y-33565000D02*
X17540000Y-35390000D01*
X15715000Y-31820000D02*
X15715000Y-33565000D01*
X15715000Y-36985000D02*
X15715000Y-38180000D01*
X16750000Y-35950000D02*
X15715000Y-36985000D01*
%TO.N,Net-(U1-SWCLK)*%
X30649500Y-39599500D02*
X28882500Y-37832500D01*
X28882500Y-37832500D02*
X28882500Y-36812500D01*
X33701000Y-40299000D02*
X33001500Y-39599500D01*
X33001500Y-39599500D02*
X30649500Y-39599500D01*
%TO.N,Net-(U1-SWD)*%
X29282500Y-37580814D02*
X29282500Y-36812500D01*
X35701000Y-40299000D02*
X34601500Y-39199500D01*
X34601500Y-39199500D02*
X30901186Y-39199500D01*
X30901186Y-39199500D02*
X29282500Y-37580814D01*
%TO.N,Net-(U12-~{RESET})*%
X29951000Y-63152000D02*
X29951000Y-60802000D01*
%TD*%
%TA.AperFunction,Conductor*%
%TO.N,GND*%
G36*
X27402580Y-31044685D02*
G01*
X27423222Y-31061318D01*
X27517424Y-31155520D01*
X27517426Y-31155521D01*
X27517430Y-31155524D01*
X27654349Y-31234573D01*
X27654356Y-31234577D01*
X27766159Y-31264534D01*
X27807082Y-31275500D01*
X27807083Y-31275500D01*
X29392191Y-31275500D01*
X29392207Y-31275501D01*
X29399803Y-31275501D01*
X29557914Y-31275501D01*
X29557917Y-31275501D01*
X29710645Y-31234577D01*
X29760764Y-31205639D01*
X29847576Y-31155520D01*
X29941778Y-31061317D01*
X30003099Y-31027834D01*
X30029458Y-31025000D01*
X30196000Y-31025000D01*
X30263039Y-31044685D01*
X30308794Y-31097489D01*
X30320000Y-31149000D01*
X30320000Y-33940542D01*
X30300315Y-34007581D01*
X30283681Y-34028223D01*
X30101981Y-34209922D01*
X30078602Y-34250416D01*
X30052317Y-34295943D01*
X30022923Y-34346855D01*
X29981999Y-34499583D01*
X29981999Y-34499585D01*
X29981999Y-34667686D01*
X29982000Y-34667699D01*
X29982000Y-35350500D01*
X29962315Y-35417539D01*
X29909511Y-35463294D01*
X29858000Y-35474500D01*
X28207080Y-35474500D01*
X28166159Y-35485464D01*
X28166159Y-35485465D01*
X28128891Y-35495451D01*
X28054354Y-35515423D01*
X28054349Y-35515426D01*
X27917430Y-35594475D01*
X27917422Y-35594481D01*
X27773223Y-35738681D01*
X27711900Y-35772166D01*
X27685542Y-35775000D01*
X25694000Y-35775000D01*
X25626961Y-35755315D01*
X25581206Y-35702511D01*
X25570000Y-35651000D01*
X25570000Y-34684458D01*
X25589685Y-34617419D01*
X25606319Y-34596777D01*
X25663020Y-34540076D01*
X25742077Y-34403144D01*
X25783000Y-34250417D01*
X25783000Y-31149000D01*
X25802685Y-31081961D01*
X25855489Y-31036206D01*
X25907000Y-31025000D01*
X27335541Y-31025000D01*
X27402580Y-31044685D01*
G37*
%TD.AperFunction*%
%TD*%
M02*
